%
M48
M72
T01C0.02400
T02C0.03150
T03C0.03200
%
T01
X28500Y59600
X57500Y114600
X125500Y114600
X155500Y59600
T02
X111500Y151600
X111500Y161600
X74000Y161600
X74000Y151600
T03
X82500Y128600
X82500Y118600
X82500Y109600
X82500Y99600
X82500Y89600
X101500Y89600
X101500Y99600
X101500Y109600
X102500Y118600
X102500Y128600
X144500Y108600
X164500Y108600
X121500Y66600
X113500Y66600
X71500Y66600
X63500Y66600
X40500Y109600
X20500Y109600
M30
