G75*
%MOIN*%
%OFA0B0*%
%FSLAX25Y25*%
%IPPOS*%
%LPD*%
%AMOC8*
5,1,8,0,0,1.08239X$1,22.5*
%
%ADD10C,0.00394*%
%ADD11OC8,0.05600*%
%ADD12C,0.05600*%
%ADD13OC8,0.05150*%
%ADD14R,0.05150X0.05150*%
%ADD15OC8,0.06600*%
%ADD16C,0.05200*%
%ADD17C,0.02400*%
%ADD18C,0.03600*%
D10*
X0027228Y0036301D02*
X0028907Y0035531D01*
X0030613Y0034956D01*
X0030958Y0034840D01*
X0031373Y0034712D01*
X0031832Y0034579D01*
X0032290Y0034446D01*
X0032790Y0034309D01*
X0033819Y0034039D01*
X0034348Y0033907D01*
X0034862Y0033785D01*
X0035376Y0033664D01*
X0035875Y0033552D01*
X0036332Y0033458D01*
X0036808Y0033360D01*
X0037340Y0033266D01*
X0037897Y0033181D01*
X0038454Y0033095D01*
X0039034Y0033017D01*
X0039608Y0032951D01*
X0040182Y0032884D01*
X0040748Y0032830D01*
X0041276Y0032790D01*
X0041803Y0032751D01*
X0042291Y0032727D01*
X0042709Y0032722D01*
X0042873Y0032720D01*
X0043120Y0032717D01*
X0043366Y0032714D01*
X0043694Y0032709D01*
X0044023Y0032705D01*
X0044352Y0032701D01*
X0044682Y0032697D01*
X0044930Y0032694D01*
X0045178Y0032691D01*
X0045345Y0032689D01*
X0045397Y0032689D01*
X0045444Y0032691D01*
X0045491Y0032694D01*
X0045538Y0032697D01*
X0045586Y0032701D01*
X0045679Y0032712D01*
X0045726Y0032718D01*
X0045773Y0032724D01*
X0045820Y0032731D01*
X0045866Y0032738D01*
X0045913Y0032745D01*
X0045871Y0032516D01*
X0045831Y0032300D01*
X0045755Y0031892D01*
X0045719Y0031700D01*
X0045684Y0031517D01*
X0045649Y0031334D01*
X0045616Y0031160D01*
X0045584Y0030994D01*
X0045551Y0030828D01*
X0045520Y0030670D01*
X0045490Y0030516D01*
X0045410Y0030115D01*
X0045172Y0028910D01*
X0043553Y0027695D01*
X0041934Y0026479D01*
X0040314Y0025264D01*
X0038695Y0024048D01*
X0038448Y0023862D01*
X0038225Y0023650D01*
X0038031Y0023417D01*
X0037838Y0023183D01*
X0037672Y0022929D01*
X0037402Y0022390D01*
X0037299Y0022105D01*
X0037228Y0021810D01*
X0037158Y0021515D01*
X0037122Y0021209D01*
X0037122Y0015012D01*
X0037232Y0014494D01*
X0037631Y0013552D01*
X0037919Y0013128D01*
X0038275Y0012772D01*
X0038631Y0012416D01*
X0039055Y0012127D01*
X0039997Y0011729D01*
X0040515Y0011618D01*
X0143486Y0011618D01*
X0144004Y0011729D01*
X0144946Y0012127D01*
X0145370Y0012416D01*
X0145727Y0012772D01*
X0146083Y0013128D01*
X0146371Y0013552D01*
X0146770Y0014494D01*
X0146880Y0015012D01*
X0146880Y0021158D01*
X0146845Y0021458D01*
X0146776Y0021750D01*
X0146708Y0022041D01*
X0146607Y0022323D01*
X0146476Y0022589D01*
X0146345Y0022856D01*
X0146183Y0023108D01*
X0145805Y0023572D01*
X0145589Y0023783D01*
X0145347Y0023969D01*
X0144462Y0024652D01*
X0144020Y0024994D01*
X0143577Y0025335D01*
X0143329Y0025528D01*
X0143046Y0025745D01*
X0142451Y0026200D01*
X0142138Y0026437D01*
X0141829Y0026671D01*
X0141520Y0026905D01*
X0141215Y0027136D01*
X0140932Y0027348D01*
X0140649Y0027560D01*
X0140388Y0027754D01*
X0140169Y0027916D01*
X0139793Y0028195D01*
X0139416Y0028473D01*
X0138664Y0029031D01*
X0138623Y0029340D01*
X0138501Y0030268D01*
X0138469Y0030505D01*
X0138439Y0030733D01*
X0138409Y0030952D01*
X0138379Y0031172D01*
X0138350Y0031383D01*
X0138321Y0031587D01*
X0138292Y0031792D01*
X0138264Y0031989D01*
X0138236Y0032181D01*
X0138208Y0032373D01*
X0138180Y0032558D01*
X0138152Y0032740D01*
X0138194Y0032734D01*
X0138235Y0032728D01*
X0138318Y0032717D01*
X0138359Y0032711D01*
X0138442Y0032701D01*
X0138483Y0032697D01*
X0138525Y0032694D01*
X0138567Y0032691D01*
X0138610Y0032689D01*
X0141395Y0032689D01*
X0141915Y0032715D01*
X0142480Y0032759D01*
X0143044Y0032804D01*
X0143654Y0032867D01*
X0144272Y0032943D01*
X0144889Y0033018D01*
X0145515Y0033106D01*
X0146110Y0033199D01*
X0146706Y0033292D01*
X0147272Y0033390D01*
X0147771Y0033487D01*
X0150344Y0033982D01*
X0152765Y0034702D01*
X0157261Y0036556D01*
X0159334Y0037691D01*
X0161212Y0039017D01*
X0163089Y0040344D01*
X0164770Y0041862D01*
X0167693Y0045250D01*
X0168936Y0047119D01*
X0169936Y0049148D01*
X0169979Y0049235D01*
X0170022Y0049320D01*
X0170064Y0049402D01*
X0170106Y0049484D01*
X0170147Y0049564D01*
X0170229Y0049720D01*
X0170269Y0049796D01*
X0170308Y0049869D01*
X0170348Y0049943D01*
X0170386Y0050015D01*
X0170423Y0050084D01*
X0170703Y0052420D01*
X0170984Y0054756D01*
X0171264Y0057092D01*
X0171544Y0059428D01*
X0171533Y0059510D01*
X0171515Y0059673D01*
X0171467Y0060125D01*
X0171438Y0060414D01*
X0171404Y0060750D01*
X0171370Y0061085D01*
X0171332Y0061467D01*
X0171292Y0061879D01*
X0171252Y0062290D01*
X0171209Y0062731D01*
X0171165Y0063185D01*
X0171120Y0063656D01*
X0171065Y0064182D01*
X0171005Y0064729D01*
X0170944Y0065276D01*
X0170879Y0065843D01*
X0170812Y0066394D01*
X0170746Y0066946D01*
X0170677Y0067482D01*
X0170546Y0068451D01*
X0170482Y0068884D01*
X0170425Y0069230D01*
X0170381Y0069497D01*
X0170334Y0069810D01*
X0170240Y0070485D01*
X0170193Y0070846D01*
X0170148Y0071207D01*
X0170103Y0071569D01*
X0170061Y0071931D01*
X0169988Y0072609D01*
X0169957Y0072925D01*
X0169935Y0073195D01*
X0169910Y0073500D01*
X0169876Y0073878D01*
X0169835Y0074301D01*
X0169794Y0074724D01*
X0169747Y0075191D01*
X0169696Y0075674D01*
X0169645Y0076157D01*
X0169591Y0076655D01*
X0169537Y0077140D01*
X0169482Y0077624D01*
X0169427Y0078096D01*
X0169375Y0078525D01*
X0169325Y0078939D01*
X0169272Y0079395D01*
X0169219Y0079866D01*
X0169167Y0080336D01*
X0169114Y0080821D01*
X0169065Y0081293D01*
X0169016Y0081764D01*
X0168970Y0082222D01*
X0168930Y0082637D01*
X0168890Y0083053D01*
X0168856Y0083427D01*
X0168831Y0083731D01*
X0168813Y0083952D01*
X0168794Y0084177D01*
X0168773Y0084404D01*
X0168752Y0084631D01*
X0168729Y0084860D01*
X0168704Y0085090D01*
X0168678Y0085320D01*
X0168650Y0085550D01*
X0168618Y0085780D01*
X0168585Y0086010D01*
X0168550Y0086239D01*
X0168509Y0086467D01*
X0168519Y0086467D01*
X0168425Y0087924D01*
X0168332Y0089381D01*
X0168238Y0090839D01*
X0168144Y0092296D01*
X0168772Y0092311D01*
X0169401Y0092325D01*
X0170029Y0092339D01*
X0170657Y0092353D01*
X0170919Y0092359D01*
X0171178Y0092391D01*
X0171683Y0092505D01*
X0171929Y0092586D01*
X0172164Y0092691D01*
X0172399Y0092795D01*
X0172624Y0092922D01*
X0172836Y0093071D01*
X0173047Y0093220D01*
X0173245Y0093390D01*
X0173425Y0093581D01*
X0173605Y0093771D02*
X0173765Y0093978D01*
X0173902Y0094197D01*
X0174040Y0094416D01*
X0174155Y0094648D01*
X0174246Y0094889D01*
X0174338Y0095129D01*
X0174406Y0095379D01*
X0174492Y0095889D01*
X0174510Y0096150D01*
X0174502Y0096412D01*
X0174457Y0097860D01*
X0174367Y0100756D01*
X0174322Y0102204D01*
X0174279Y0103556D01*
X0174240Y0104648D01*
X0174185Y0105583D01*
X0174130Y0106518D01*
X0174060Y0107296D01*
X0173957Y0108019D01*
X0173853Y0108742D01*
X0173717Y0109410D01*
X0173343Y0110843D01*
X0173105Y0111606D01*
X0172798Y0112520D01*
X0172275Y0114077D01*
X0171693Y0115535D01*
X0171042Y0116911D01*
X0170391Y0118287D01*
X0169670Y0119582D01*
X0168066Y0122042D01*
X0167183Y0123208D01*
X0166208Y0124328D01*
X0165232Y0125447D01*
X0164164Y0126520D01*
X0162992Y0127564D01*
X0161603Y0128801D01*
X0160189Y0129859D01*
X0158707Y0130754D01*
X0157225Y0131649D01*
X0155675Y0132381D01*
X0154016Y0132965D01*
X0152356Y0133548D01*
X0150587Y0133983D01*
X0148665Y0134285D01*
X0146744Y0134587D01*
X0144670Y0134755D01*
X0142403Y0134804D01*
X0142152Y0134809D01*
X0141764Y0134817D01*
X0141377Y0134826D01*
X0140853Y0134837D01*
X0139762Y0134860D01*
X0139195Y0134873D01*
X0138246Y0134893D01*
X0137865Y0134901D01*
X0137692Y0134904D01*
X0137530Y0135373D01*
X0137342Y0135809D01*
X0137122Y0136229D01*
X0136902Y0136649D01*
X0136650Y0137052D01*
X0136361Y0137453D01*
X0136073Y0137854D01*
X0135748Y0138252D01*
X0135382Y0138663D01*
X0135015Y0139074D01*
X0134608Y0139497D01*
X0134154Y0139948D01*
X0134101Y0140000D01*
X0134050Y0140052D01*
X0134000Y0140102D01*
X0133950Y0140153D01*
X0133902Y0140203D01*
X0133854Y0140252D01*
X0133807Y0140301D01*
X0133761Y0140349D01*
X0133715Y0140396D01*
X0133670Y0140443D01*
X0133626Y0140489D01*
X0133583Y0140535D01*
X0133373Y0140754D01*
X0133168Y0140960D01*
X0132760Y0141350D01*
X0132557Y0141534D01*
X0132351Y0141706D01*
X0132146Y0141879D01*
X0131939Y0142041D01*
X0131514Y0142344D01*
X0131296Y0142485D01*
X0131070Y0142617D01*
X0131108Y0142743D01*
X0131141Y0142870D01*
X0131193Y0143127D01*
X0131213Y0143257D01*
X0131226Y0143387D01*
X0131240Y0143518D01*
X0131246Y0143650D01*
X0131246Y0143782D01*
X0131246Y0143915D01*
X0131239Y0144048D01*
X0131225Y0144181D01*
X0131166Y0144738D01*
X0131107Y0145296D01*
X0131047Y0145854D01*
X0130988Y0146412D01*
X0130839Y0147817D01*
X0130676Y0149070D01*
X0130483Y0150227D01*
X0130291Y0151383D01*
X0130069Y0152443D01*
X0129805Y0153462D01*
X0129540Y0154481D01*
X0129232Y0155459D01*
X0128867Y0156452D01*
X0128501Y0157444D01*
X0128078Y0158452D01*
X0127582Y0159529D01*
X0126350Y0162205D01*
X0124834Y0164703D01*
X0121311Y0169280D01*
X0119303Y0171358D01*
X0117087Y0173196D01*
X0114871Y0175034D01*
X0112447Y0176631D01*
X0109853Y0177956D01*
X0107259Y0179281D01*
X0104494Y0180333D01*
X0101597Y0181081D01*
X0100746Y0181301D01*
X0100006Y0181476D01*
X0099304Y0181616D01*
X0098602Y0181756D01*
X0097938Y0181861D01*
X0096536Y0182015D01*
X0095799Y0182065D01*
X0094951Y0182095D01*
X0094103Y0182125D01*
X0093144Y0182136D01*
X0090593Y0182136D01*
X0089357Y0182106D01*
X0087077Y0181961D01*
X0086033Y0181845D01*
X0085010Y0181675D01*
X0083987Y0181505D01*
X0082985Y0181279D01*
X0081929Y0180986D01*
X0080873Y0180693D01*
X0079764Y0180333D01*
X0078527Y0179892D01*
X0075787Y0178917D01*
X0073184Y0177630D01*
X0068342Y0174521D01*
X0066104Y0172699D01*
X0064091Y0170656D01*
X0062079Y0168612D01*
X0060294Y0166347D01*
X0058779Y0163905D01*
X0057264Y0161463D01*
X0056021Y0158844D01*
X0055093Y0156093D01*
X0054754Y0155088D01*
X0054467Y0154159D01*
X0054226Y0153280D01*
X0053986Y0152401D01*
X0053793Y0151573D01*
X0053492Y0149969D01*
X0053383Y0149192D01*
X0053312Y0148417D01*
X0053242Y0147641D01*
X0053209Y0146867D01*
X0053209Y0143675D01*
X0053213Y0143586D01*
X0053227Y0143412D01*
X0053238Y0143325D01*
X0053252Y0143240D01*
X0053265Y0143154D01*
X0053281Y0143070D01*
X0053300Y0142986D01*
X0053318Y0142902D01*
X0053339Y0142819D01*
X0053361Y0142737D01*
X0052643Y0142331D01*
X0051934Y0141833D01*
X0050574Y0140701D01*
X0049924Y0140066D01*
X0049323Y0139385D01*
X0048723Y0138705D01*
X0048173Y0137979D01*
X0047694Y0137231D01*
X0047214Y0136483D01*
X0046806Y0135713D01*
X0046488Y0134943D01*
X0046482Y0134943D01*
X0046477Y0134944D01*
X0046471Y0134944D01*
X0046466Y0134945D01*
X0046460Y0134946D01*
X0046455Y0134946D01*
X0046449Y0134947D01*
X0046443Y0134948D01*
X0046438Y0134949D01*
X0046432Y0134949D01*
X0046427Y0134949D01*
X0046408Y0134949D01*
X0046063Y0134936D01*
X0045040Y0134897D01*
X0044364Y0134871D01*
X0043014Y0134819D01*
X0042341Y0134792D01*
X0041331Y0134753D01*
X0040996Y0134740D01*
X0039350Y0134676D01*
X0037935Y0134586D01*
X0035398Y0134319D01*
X0034277Y0134140D01*
X0033217Y0133898D01*
X0032157Y0133657D01*
X0031160Y0133351D01*
X0030141Y0132963D01*
X0029122Y0132575D01*
X0028081Y0132103D01*
X0026934Y0131530D01*
X0025445Y0130786D01*
X0023992Y0129863D01*
X0021211Y0127720D01*
X0019884Y0126499D01*
X0018648Y0125158D01*
X0017411Y0123818D01*
X0016265Y0122358D01*
X0015236Y0120808D01*
X0014208Y0119258D01*
X0013297Y0117619D01*
X0012532Y0115919D01*
X0012022Y0114788D01*
X0011605Y0113770D01*
X0010920Y0111780D01*
X0010652Y0110808D01*
X0010441Y0109771D01*
X0010229Y0108734D01*
X0010073Y0107630D01*
X0009956Y0106372D01*
X0009838Y0105114D01*
X0009759Y0103701D01*
X0009699Y0102044D01*
X0009648Y0100641D01*
X0009548Y0097834D01*
X0009497Y0096430D01*
X0009488Y0096167D01*
X0009505Y0095906D01*
X0009547Y0095650D01*
X0009590Y0095394D01*
X0009657Y0095143D01*
X0009748Y0094901D01*
X0009839Y0094660D01*
X0009954Y0094427D01*
X0010228Y0093987D01*
X0010388Y0093779D01*
X0010568Y0093587D01*
X0010749Y0093396D01*
X0010947Y0093225D01*
X0011370Y0092925D01*
X0011596Y0092797D01*
X0012067Y0092588D01*
X0012314Y0092506D01*
X0012567Y0092449D01*
X0012820Y0092392D01*
X0013080Y0092359D01*
X0013343Y0092353D01*
X0013997Y0092338D01*
X0014651Y0092323D01*
X0015306Y0092309D01*
X0015960Y0092294D01*
X0015791Y0089382D01*
X0015707Y0087926D01*
X0015622Y0086471D01*
X0015607Y0086321D01*
X0015589Y0086146D01*
X0015569Y0085951D01*
X0015548Y0085755D01*
X0015525Y0085538D01*
X0015499Y0085303D01*
X0015473Y0085068D01*
X0015445Y0084814D01*
X0015414Y0084546D01*
X0015384Y0084277D01*
X0015351Y0083993D01*
X0015316Y0083697D01*
X0015260Y0083226D01*
X0015082Y0081732D01*
X0014960Y0080709D01*
X0014696Y0078497D01*
X0014555Y0077308D01*
X0014425Y0076231D01*
X0014296Y0075153D01*
X0014180Y0074188D01*
X0014100Y0073527D01*
X0013695Y0070179D01*
X0013390Y0067585D01*
X0013161Y0065569D01*
X0012931Y0063553D01*
X0012778Y0062116D01*
X0012675Y0061085D01*
X0012572Y0060053D01*
X0012520Y0059426D01*
X0012493Y0059029D01*
X0012466Y0058633D01*
X0012465Y0058467D01*
X0012464Y0058358D01*
X0012462Y0058112D01*
X0012459Y0057866D01*
X0012457Y0057620D01*
X0012455Y0057374D01*
X0012791Y0055490D01*
X0013127Y0053605D01*
X0013462Y0051721D01*
X0013798Y0049836D01*
X0013841Y0049756D01*
X0013885Y0049674D01*
X0013930Y0049590D01*
X0013975Y0049506D01*
X0014021Y0049420D01*
X0014067Y0049331D01*
X0014114Y0049242D01*
X0014162Y0049151D01*
X0014258Y0048965D01*
X0014307Y0048869D01*
X0014356Y0048771D01*
X0015119Y0047248D01*
X0016090Y0045767D01*
X0017224Y0044366D01*
X0018358Y0042966D01*
X0019655Y0041645D01*
X0021069Y0040442D01*
X0022484Y0039240D01*
X0024017Y0038156D01*
X0025623Y0037229D01*
X0027228Y0036301D01*
D11*
X0063500Y0066600D03*
X0121500Y0066600D03*
D12*
X0113500Y0066600D03*
X0071500Y0066600D03*
D13*
X0074000Y0161600D03*
X0111500Y0161600D03*
D14*
X0111500Y0151600D03*
X0074000Y0151600D03*
D15*
X0082500Y0128600D03*
X0082500Y0118600D03*
X0102500Y0118600D03*
X0102500Y0128600D03*
X0144500Y0108600D03*
X0164500Y0108600D03*
X0040500Y0109600D03*
X0020500Y0109600D03*
D16*
X0079900Y0109600D02*
X0085100Y0109600D01*
X0085100Y0099600D02*
X0079900Y0099600D01*
X0079900Y0089600D02*
X0085100Y0089600D01*
X0098900Y0089600D02*
X0104100Y0089600D01*
X0104100Y0099600D02*
X0098900Y0099600D01*
X0098900Y0109600D02*
X0104100Y0109600D01*
D17*
X0101500Y0109600D02*
X0108900Y0109600D01*
X0108900Y0109978D01*
X0108782Y0110724D01*
X0108548Y0111443D01*
X0108205Y0112116D01*
X0107761Y0112727D01*
X0107227Y0113261D01*
X0106616Y0113705D01*
X0105943Y0114048D01*
X0105779Y0114101D01*
X0108000Y0116322D01*
X0108000Y0120878D01*
X0105278Y0123600D01*
X0108000Y0126322D01*
X0108000Y0130878D01*
X0104778Y0134100D01*
X0100222Y0134100D01*
X0097000Y0130878D01*
X0097000Y0126322D01*
X0099722Y0123600D01*
X0097000Y0120878D01*
X0097000Y0116322D01*
X0098922Y0114400D01*
X0098522Y0114400D01*
X0097776Y0114282D01*
X0097057Y0114048D01*
X0096384Y0113705D01*
X0095773Y0113261D01*
X0095239Y0112727D01*
X0094795Y0112116D01*
X0094452Y0111443D01*
X0094218Y0110724D01*
X0094100Y0109978D01*
X0094100Y0109600D01*
X0101500Y0109600D01*
X0101500Y0109600D01*
X0101500Y0104800D01*
X0104478Y0104800D01*
X0105224Y0104918D01*
X0105943Y0105152D01*
X0106616Y0105495D01*
X0107227Y0105939D01*
X0107761Y0106473D01*
X0108205Y0107084D01*
X0108548Y0107757D01*
X0108782Y0108476D01*
X0108900Y0109222D01*
X0108900Y0109600D01*
X0101500Y0109600D01*
X0101500Y0109600D01*
X0101500Y0109600D01*
X0101500Y0104800D01*
X0098522Y0104800D01*
X0097776Y0104918D01*
X0097057Y0105152D01*
X0096384Y0105495D01*
X0095773Y0105939D01*
X0095239Y0106473D01*
X0094795Y0107084D01*
X0094452Y0107757D01*
X0094218Y0108476D01*
X0094100Y0109222D01*
X0094100Y0109600D01*
X0101500Y0109600D01*
X0101500Y0109533D02*
X0101500Y0109533D01*
X0101500Y0107134D02*
X0101500Y0107134D01*
X0105055Y0104400D02*
X0097945Y0104400D01*
X0096181Y0103669D01*
X0094831Y0102319D01*
X0094100Y0100555D01*
X0094100Y0098645D01*
X0094831Y0096881D01*
X0096181Y0095531D01*
X0097945Y0094800D01*
X0105055Y0094800D01*
X0106819Y0095531D01*
X0108169Y0096881D01*
X0108900Y0098645D01*
X0108900Y0100555D01*
X0108169Y0102319D01*
X0106819Y0103669D01*
X0105055Y0104400D01*
X0108151Y0102337D02*
X0122100Y0102337D01*
X0122100Y0104736D02*
X0060900Y0104736D01*
X0060900Y0107134D02*
X0075726Y0107134D01*
X0075831Y0106881D02*
X0077181Y0105531D01*
X0078945Y0104800D01*
X0086055Y0104800D01*
X0087819Y0105531D01*
X0089169Y0106881D01*
X0089900Y0108645D01*
X0089900Y0110555D01*
X0089169Y0112319D01*
X0087819Y0113669D01*
X0086071Y0114393D01*
X0088000Y0116322D01*
X0088000Y0120878D01*
X0085278Y0123600D01*
X0088000Y0126322D01*
X0088000Y0130878D01*
X0084778Y0134100D01*
X0080222Y0134100D01*
X0077000Y0130878D01*
X0077000Y0126322D01*
X0079722Y0123600D01*
X0077000Y0120878D01*
X0077000Y0116322D01*
X0078929Y0114393D01*
X0077181Y0113669D01*
X0075831Y0112319D01*
X0075100Y0110555D01*
X0075100Y0108645D01*
X0075831Y0106881D01*
X0075100Y0109533D02*
X0060900Y0109533D01*
X0060900Y0111932D02*
X0075670Y0111932D01*
X0078776Y0114330D02*
X0061500Y0114330D01*
X0061500Y0113804D02*
X0061500Y0115396D01*
X0060891Y0116866D01*
X0059766Y0117991D01*
X0058296Y0118600D01*
X0056704Y0118600D01*
X0055234Y0117991D01*
X0054109Y0116866D01*
X0053500Y0115396D01*
X0053500Y0113804D01*
X0054100Y0112356D01*
X0054100Y0096924D01*
X0054618Y0095674D01*
X0072618Y0077674D01*
X0073574Y0076718D01*
X0074824Y0076200D01*
X0107092Y0076200D01*
X0110100Y0073192D01*
X0110100Y0070271D01*
X0109261Y0069432D01*
X0108500Y0067595D01*
X0108500Y0065605D01*
X0109261Y0063768D01*
X0110668Y0062361D01*
X0112505Y0061600D01*
X0114495Y0061600D01*
X0116332Y0062361D01*
X0117500Y0063529D01*
X0119429Y0061600D01*
X0123571Y0061600D01*
X0126500Y0064529D01*
X0126500Y0068671D01*
X0123571Y0071600D01*
X0119429Y0071600D01*
X0117500Y0069671D01*
X0116900Y0070271D01*
X0116900Y0075276D01*
X0116382Y0076526D01*
X0115426Y0077482D01*
X0113382Y0079526D01*
X0127377Y0092697D01*
X0127426Y0092718D01*
X0127868Y0093159D01*
X0128323Y0093588D01*
X0128345Y0093636D01*
X0128382Y0093674D01*
X0128621Y0094251D01*
X0128878Y0094821D01*
X0128880Y0094874D01*
X0128900Y0094924D01*
X0128900Y0095549D01*
X0128919Y0096173D01*
X0128900Y0096223D01*
X0128900Y0112356D01*
X0129500Y0113804D01*
X0129500Y0115396D01*
X0128891Y0116866D01*
X0127766Y0117991D01*
X0126296Y0118600D01*
X0124704Y0118600D01*
X0123234Y0117991D01*
X0122109Y0116866D01*
X0121500Y0115396D01*
X0121500Y0113804D01*
X0122100Y0112356D01*
X0122100Y0097069D01*
X0107152Y0083000D01*
X0076908Y0083000D01*
X0060900Y0099008D01*
X0060900Y0112356D01*
X0061500Y0113804D01*
X0060948Y0116729D02*
X0077000Y0116729D01*
X0077000Y0119127D02*
X0016998Y0119127D01*
X0017425Y0119771D02*
X0018209Y0120953D01*
X0019237Y0122263D01*
X0020733Y0123883D01*
X0020733Y0123883D01*
X0021580Y0124801D01*
X0022758Y0125885D01*
X0025369Y0127899D01*
X0026626Y0128697D01*
X0027579Y0129173D01*
X0027967Y0129367D01*
X0028432Y0129599D01*
X0029111Y0129939D01*
X0030044Y0130361D01*
X0031440Y0130893D01*
X0031939Y0131083D01*
X0032776Y0131339D01*
X0033887Y0131593D01*
X0034732Y0131786D01*
X0035712Y0131942D01*
X0038137Y0132197D01*
X0039472Y0132282D01*
X0041192Y0132349D01*
X0041420Y0132358D01*
X0042573Y0132403D01*
X0043079Y0132422D01*
X0044509Y0132478D01*
X0045132Y0132502D01*
X0046156Y0132541D01*
X0046275Y0132546D01*
X0046311Y0132546D01*
X0046590Y0132506D01*
X0046590Y0132506D01*
X0046602Y0132505D01*
X0046636Y0132514D01*
X0046677Y0132509D01*
X0046677Y0132509D01*
X0046683Y0132509D01*
X0046720Y0132519D01*
X0046763Y0132516D01*
X0046839Y0132540D01*
X0046923Y0132538D01*
X0046945Y0132547D01*
X0046969Y0132547D01*
X0047299Y0132684D01*
X0047525Y0132743D01*
X0047544Y0132757D01*
X0047599Y0132773D01*
X0047624Y0132793D01*
X0047671Y0132808D01*
X0047726Y0132855D01*
X0047810Y0132888D01*
X0047827Y0132904D01*
X0047849Y0132913D01*
X0048136Y0133201D01*
X0048154Y0133216D01*
X0048287Y0133316D01*
X0048294Y0133327D01*
X0048345Y0133368D01*
X0048358Y0133391D01*
X0048398Y0133425D01*
X0048428Y0133484D01*
X0048496Y0133550D01*
X0048505Y0133572D01*
X0048522Y0133588D01*
X0048686Y0133986D01*
X0048730Y0134066D01*
X0048772Y0134137D01*
X0048773Y0134143D01*
X0048805Y0134202D01*
X0048808Y0134226D01*
X0048833Y0134274D01*
X0048838Y0134336D01*
X0048876Y0134425D01*
X0048877Y0134448D01*
X0048977Y0134692D01*
X0049285Y0135273D01*
X0049641Y0135827D01*
X0050140Y0136607D01*
X0050580Y0137186D01*
X0050805Y0137442D01*
X0050805Y0137442D01*
X0051662Y0138413D01*
X0052181Y0138919D01*
X0053391Y0139928D01*
X0053924Y0140302D01*
X0054279Y0140502D01*
X0054450Y0140549D01*
X0054691Y0140735D01*
X0054956Y0140885D01*
X0055065Y0141024D01*
X0055204Y0141132D01*
X0055356Y0141396D01*
X0055543Y0141636D01*
X0055590Y0141806D01*
X0055678Y0141959D01*
X0055717Y0142261D01*
X0055798Y0142555D01*
X0055777Y0142730D01*
X0055799Y0142905D01*
X0055720Y0143199D01*
X0055683Y0143501D01*
X0055619Y0143614D01*
X0055618Y0143619D01*
X0055612Y0143659D01*
X0055606Y0143734D01*
X0055606Y0146816D01*
X0055634Y0147481D01*
X0055656Y0147724D01*
X0055656Y0147724D01*
X0055708Y0148291D01*
X0055743Y0148674D01*
X0055765Y0148918D01*
X0055858Y0149582D01*
X0056139Y0151079D01*
X0056310Y0151813D01*
X0056593Y0152847D01*
X0056768Y0153489D01*
X0057035Y0154352D01*
X0057361Y0155318D01*
X0058247Y0157944D01*
X0059372Y0160313D01*
X0060565Y0162236D01*
X0062259Y0164969D01*
X0063880Y0167025D01*
X0066134Y0169314D01*
X0067719Y0170923D01*
X0069751Y0172577D01*
X0074366Y0175541D01*
X0076723Y0176706D01*
X0078881Y0177474D01*
X0078881Y0177474D01*
X0079337Y0177637D01*
X0079780Y0177794D01*
X0080537Y0178064D01*
X0081565Y0178398D01*
X0082111Y0178549D01*
X0082222Y0178580D01*
X0083029Y0178804D01*
X0083029Y0178804D01*
X0083568Y0178954D01*
X0084447Y0179152D01*
X0085874Y0179389D01*
X0086361Y0179470D01*
X0087285Y0179572D01*
X0089463Y0179711D01*
X0090623Y0179740D01*
X0093130Y0179740D01*
X0094046Y0179729D01*
X0094389Y0179717D01*
X0095252Y0179686D01*
X0095342Y0179683D01*
X0095676Y0179671D01*
X0096325Y0179627D01*
X0097620Y0179484D01*
X0098181Y0179396D01*
X0099168Y0179199D01*
X0099494Y0179134D01*
X0100170Y0178974D01*
X0100989Y0178763D01*
X0103766Y0178045D01*
X0106285Y0177087D01*
X0109188Y0175605D01*
X0111239Y0174557D01*
X0113442Y0173105D01*
X0115190Y0171656D01*
X0115190Y0171656D01*
X0117671Y0169598D01*
X0119494Y0167711D01*
X0122854Y0163346D01*
X0124230Y0161078D01*
X0125409Y0158517D01*
X0125883Y0157486D01*
X0126270Y0156565D01*
X0126782Y0155176D01*
X0126782Y0155176D01*
X0126963Y0154684D01*
X0127236Y0153819D01*
X0127605Y0152398D01*
X0127735Y0151897D01*
X0127935Y0150941D01*
X0128056Y0150210D01*
X0128304Y0148719D01*
X0128459Y0147535D01*
X0128554Y0146633D01*
X0128554Y0146632D01*
X0128605Y0146151D01*
X0128655Y0145685D01*
X0128714Y0145126D01*
X0128774Y0144569D01*
X0128833Y0144011D01*
X0128846Y0143890D01*
X0128849Y0143859D01*
X0128849Y0143852D01*
X0128850Y0143712D01*
X0128849Y0143703D01*
X0128836Y0143577D01*
X0128834Y0143560D01*
X0128833Y0143547D01*
X0128830Y0143535D01*
X0128760Y0143416D01*
X0128722Y0143133D01*
X0128638Y0142860D01*
X0128657Y0142665D01*
X0128631Y0142471D01*
X0128703Y0142195D01*
X0128731Y0141911D01*
X0128823Y0141738D01*
X0128872Y0141549D01*
X0129045Y0141321D01*
X0129179Y0141070D01*
X0129330Y0140945D01*
X0129449Y0140789D01*
X0129695Y0140645D01*
X0129915Y0140464D01*
X0130090Y0140410D01*
X0130164Y0140363D01*
X0130505Y0140119D01*
X0130637Y0140016D01*
X0130946Y0139757D01*
X0130982Y0139726D01*
X0131129Y0139594D01*
X0131490Y0139249D01*
X0131627Y0139111D01*
X0131703Y0139032D01*
X0131703Y0139030D01*
X0131752Y0138979D01*
X0131754Y0138975D01*
X0131851Y0138875D01*
X0131852Y0138872D01*
X0131904Y0138818D01*
X0131906Y0138814D01*
X0131956Y0138763D01*
X0131956Y0138763D01*
X0132009Y0138709D01*
X0132011Y0138704D01*
X0132067Y0138648D01*
X0132069Y0138642D01*
X0132125Y0138586D01*
X0132127Y0138582D01*
X0132258Y0138452D01*
X0132267Y0138442D01*
X0132268Y0138442D01*
X0132281Y0138429D01*
X0132361Y0138345D01*
X0132363Y0138344D01*
X0132411Y0138295D01*
X0132414Y0138293D01*
X0132512Y0138193D01*
X0132515Y0138191D01*
X0132566Y0138139D01*
X0132571Y0138137D01*
X0132624Y0138083D01*
X0132624Y0138083D01*
X0132674Y0138032D01*
X0132679Y0138030D01*
X0132733Y0137975D01*
X0132739Y0137973D01*
X0132796Y0137916D01*
X0132800Y0137914D01*
X0132900Y0137815D01*
X0133257Y0137444D01*
X0133275Y0137424D01*
X0133275Y0137424D01*
X0133598Y0137061D01*
X0133910Y0136712D01*
X0133924Y0136696D01*
X0134170Y0136395D01*
X0134557Y0135857D01*
X0134659Y0135715D01*
X0134821Y0135456D01*
X0135014Y0135087D01*
X0135177Y0134776D01*
X0135287Y0134523D01*
X0135286Y0134478D01*
X0135442Y0134078D01*
X0135582Y0133672D01*
X0135615Y0133635D01*
X0135632Y0133589D01*
X0135930Y0133279D01*
X0136214Y0132958D01*
X0136259Y0132937D01*
X0136292Y0132901D01*
X0136686Y0132729D01*
X0137072Y0132541D01*
X0137121Y0132538D01*
X0137166Y0132518D01*
X0137595Y0132509D01*
X0138024Y0132483D01*
X0138070Y0132499D01*
X0138218Y0132496D01*
X0139111Y0132477D01*
X0139835Y0132461D01*
X0140842Y0132440D01*
X0141236Y0132431D01*
X0141825Y0132419D01*
X0142189Y0132411D01*
X0142189Y0132411D01*
X0142365Y0132407D01*
X0144547Y0132360D01*
X0146461Y0132205D01*
X0148765Y0131843D01*
X0150114Y0131631D01*
X0151671Y0131248D01*
X0152771Y0130862D01*
X0152771Y0130862D01*
X0154764Y0130161D01*
X0156091Y0129534D01*
X0157060Y0128949D01*
X0157060Y0128949D01*
X0158848Y0127869D01*
X0160086Y0126943D01*
X0161349Y0125818D01*
X0162517Y0124778D01*
X0163478Y0123813D01*
X0164714Y0122394D01*
X0164714Y0122394D01*
X0165322Y0121696D01*
X0166104Y0120663D01*
X0167617Y0118343D01*
X0168258Y0117191D01*
X0169079Y0115455D01*
X0169079Y0115455D01*
X0169495Y0114578D01*
X0170024Y0113251D01*
X0170526Y0111759D01*
X0170824Y0110868D01*
X0171038Y0110183D01*
X0171382Y0108867D01*
X0171491Y0108333D01*
X0171516Y0108152D01*
X0171516Y0108152D01*
X0171616Y0107452D01*
X0171651Y0107208D01*
X0171651Y0107208D01*
X0171678Y0107018D01*
X0171740Y0106340D01*
X0171764Y0105918D01*
X0171795Y0105396D01*
X0171820Y0104966D01*
X0171846Y0104534D01*
X0171884Y0103476D01*
X0171911Y0102606D01*
X0171930Y0102009D01*
X0171941Y0101653D01*
X0171986Y0100205D01*
X0172046Y0098262D01*
X0172109Y0096254D01*
X0172111Y0096196D01*
X0172109Y0096173D01*
X0172062Y0095895D01*
X0172056Y0095872D01*
X0172024Y0095788D01*
X0171956Y0095609D01*
X0171946Y0095588D01*
X0171809Y0095371D01*
X0171796Y0095350D01*
X0171781Y0095330D01*
X0171588Y0095127D01*
X0171571Y0095112D01*
X0171418Y0095005D01*
X0171341Y0094950D01*
X0171321Y0094939D01*
X0171077Y0094830D01*
X0171064Y0094825D01*
X0171042Y0094817D01*
X0170766Y0094755D01*
X0170743Y0094753D01*
X0170601Y0094749D01*
X0170451Y0094746D01*
X0170229Y0094741D01*
X0169498Y0094724D01*
X0169195Y0094717D01*
X0169195Y0094717D01*
X0168976Y0094713D01*
X0168515Y0094702D01*
X0168467Y0094719D01*
X0168040Y0094691D01*
X0167614Y0094682D01*
X0167567Y0094661D01*
X0167515Y0094658D01*
X0167132Y0094469D01*
X0166741Y0094297D01*
X0166706Y0094260D01*
X0166659Y0094237D01*
X0166377Y0093916D01*
X0166082Y0093608D01*
X0166064Y0093560D01*
X0166030Y0093521D01*
X0165892Y0093117D01*
X0165737Y0092719D01*
X0165739Y0092667D01*
X0165722Y0092619D01*
X0165749Y0092192D01*
X0165759Y0091766D01*
X0165780Y0091718D01*
X0165816Y0091161D01*
X0165823Y0091037D01*
X0165877Y0090210D01*
X0165909Y0089704D01*
X0166003Y0088246D01*
X0166003Y0088246D01*
X0166103Y0086685D01*
X0166065Y0086514D01*
X0166112Y0086254D01*
X0166112Y0085990D01*
X0166154Y0085888D01*
X0166157Y0085837D01*
X0166200Y0085751D01*
X0166214Y0085659D01*
X0166226Y0085575D01*
X0166273Y0085237D01*
X0166297Y0085042D01*
X0166346Y0084609D01*
X0166366Y0084405D01*
X0166387Y0084174D01*
X0166406Y0083965D01*
X0166424Y0083752D01*
X0166429Y0083696D01*
X0166426Y0083686D01*
X0166460Y0083305D01*
X0166458Y0083298D01*
X0166480Y0083072D01*
X0166506Y0082757D01*
X0166511Y0082747D01*
X0166537Y0082456D01*
X0166537Y0082451D01*
X0166545Y0082362D01*
X0166547Y0082360D01*
X0166584Y0081994D01*
X0166582Y0081989D01*
X0166604Y0081776D01*
X0166629Y0081518D01*
X0166632Y0081513D01*
X0166679Y0081050D01*
X0166681Y0081045D01*
X0166681Y0081042D01*
X0166680Y0081038D01*
X0166730Y0080572D01*
X0166731Y0080570D01*
X0166731Y0080568D01*
X0166733Y0080548D01*
X0166732Y0080544D01*
X0166757Y0080312D01*
X0166780Y0080098D01*
X0166782Y0080094D01*
X0166784Y0080074D01*
X0166835Y0079605D01*
X0166837Y0079601D01*
X0166837Y0079597D01*
X0166836Y0079593D01*
X0166890Y0079130D01*
X0166888Y0079123D01*
X0166920Y0078856D01*
X0166943Y0078655D01*
X0166945Y0078651D01*
X0166947Y0078633D01*
X0166999Y0078189D01*
X0167002Y0078183D01*
X0167050Y0077787D01*
X0167101Y0077351D01*
X0167102Y0077345D01*
X0167166Y0076769D01*
X0167208Y0076398D01*
X0167208Y0076398D01*
X0167209Y0076391D01*
X0167262Y0075902D01*
X0167362Y0074949D01*
X0167363Y0074946D01*
X0167409Y0074491D01*
X0167475Y0073806D01*
X0167490Y0073654D01*
X0167516Y0073363D01*
X0167531Y0073184D01*
X0167526Y0073167D01*
X0167558Y0072838D01*
X0167554Y0072827D01*
X0167579Y0072600D01*
X0167585Y0072526D01*
X0167586Y0072524D01*
X0167608Y0072252D01*
X0167617Y0072236D01*
X0167627Y0072132D01*
X0167625Y0072128D01*
X0167636Y0072038D01*
X0167649Y0071901D01*
X0167652Y0071895D01*
X0167668Y0071757D01*
X0167666Y0071748D01*
X0167698Y0071487D01*
X0167729Y0071201D01*
X0167734Y0071191D01*
X0167755Y0071011D01*
X0167754Y0071007D01*
X0167766Y0070913D01*
X0167777Y0070819D01*
X0167779Y0070816D01*
X0167803Y0070636D01*
X0167800Y0070626D01*
X0167840Y0070341D01*
X0167872Y0070079D01*
X0167877Y0070071D01*
X0167895Y0069934D01*
X0167893Y0069927D01*
X0167914Y0069791D01*
X0167925Y0069701D01*
X0167928Y0069697D01*
X0167943Y0069596D01*
X0167939Y0069579D01*
X0167983Y0069311D01*
X0167982Y0069309D01*
X0167994Y0069240D01*
X0168026Y0069007D01*
X0168032Y0068996D01*
X0168081Y0068671D01*
X0168090Y0068656D01*
X0168117Y0068490D01*
X0168172Y0068115D01*
X0168301Y0067168D01*
X0168367Y0066650D01*
X0168409Y0066300D01*
X0168499Y0065561D01*
X0168563Y0065009D01*
X0168570Y0064941D01*
X0168616Y0064519D01*
X0168674Y0063993D01*
X0168682Y0063926D01*
X0168735Y0063416D01*
X0168778Y0062975D01*
X0168777Y0062974D01*
X0168820Y0062532D01*
X0168820Y0062531D01*
X0168848Y0062242D01*
X0168869Y0062027D01*
X0168869Y0062026D01*
X0168900Y0061706D01*
X0168909Y0061618D01*
X0168912Y0061584D01*
X0168912Y0061584D01*
X0168938Y0061322D01*
X0168938Y0061320D01*
X0168969Y0061009D01*
X0168993Y0060759D01*
X0168994Y0060758D01*
X0169005Y0060646D01*
X0169005Y0060645D01*
X0169023Y0060464D01*
X0169032Y0060375D01*
X0169032Y0060374D01*
X0169035Y0060351D01*
X0169033Y0060347D01*
X0169072Y0059982D01*
X0169081Y0059887D01*
X0169080Y0059881D01*
X0169101Y0059694D01*
X0169094Y0059670D01*
X0169128Y0059414D01*
X0168827Y0056904D01*
X0168827Y0056904D01*
X0168547Y0054568D01*
X0168267Y0052232D01*
X0168098Y0050825D01*
X0168094Y0050822D01*
X0168047Y0050728D01*
X0168039Y0050721D01*
X0167957Y0050554D01*
X0167930Y0050504D01*
X0167930Y0050501D01*
X0167888Y0050422D01*
X0167888Y0050416D01*
X0167803Y0050255D01*
X0167803Y0050250D01*
X0167759Y0050165D01*
X0167758Y0050157D01*
X0167670Y0049985D01*
X0167669Y0049977D01*
X0167623Y0049885D01*
X0167623Y0049876D01*
X0166854Y0048318D01*
X0165780Y0046702D01*
X0163053Y0043541D01*
X0161589Y0042219D01*
X0160218Y0041250D01*
X0159634Y0040838D01*
X0159439Y0040700D01*
X0158063Y0039728D01*
X0156225Y0038722D01*
X0151965Y0036964D01*
X0149774Y0036314D01*
X0147785Y0035930D01*
X0147784Y0035930D01*
X0147311Y0035839D01*
X0146850Y0035750D01*
X0146849Y0035749D01*
X0146839Y0035748D01*
X0146316Y0035657D01*
X0145805Y0035577D01*
X0145164Y0035477D01*
X0144577Y0035395D01*
X0144454Y0035380D01*
X0144454Y0035380D01*
X0143867Y0035308D01*
X0143508Y0035264D01*
X0143507Y0035264D01*
X0143384Y0035249D01*
X0142826Y0035191D01*
X0142766Y0035186D01*
X0142766Y0035186D01*
X0142583Y0035172D01*
X0141816Y0035111D01*
X0141761Y0035107D01*
X0141336Y0035086D01*
X0138699Y0035086D01*
X0138593Y0035100D01*
X0138262Y0035181D01*
X0138140Y0035162D01*
X0138055Y0035174D01*
X0138040Y0035170D01*
X0137984Y0035178D01*
X0137656Y0035088D01*
X0137320Y0035037D01*
X0137200Y0034964D01*
X0137064Y0034928D01*
X0136795Y0034720D01*
X0136504Y0034544D01*
X0136421Y0034430D01*
X0136309Y0034345D01*
X0136140Y0034049D01*
X0135939Y0033775D01*
X0135905Y0033639D01*
X0135836Y0033517D01*
X0135792Y0033180D01*
X0135711Y0032849D01*
X0135732Y0032711D01*
X0135714Y0032571D01*
X0135804Y0032243D01*
X0135810Y0032202D01*
X0135837Y0032023D01*
X0135892Y0031645D01*
X0135919Y0031459D01*
X0135959Y0031174D01*
X0135977Y0031047D01*
X0136004Y0030853D01*
X0136033Y0030633D01*
X0136065Y0030403D01*
X0136094Y0030187D01*
X0136126Y0029943D01*
X0136228Y0029169D01*
X0136223Y0029149D01*
X0136290Y0028697D01*
X0136350Y0028245D01*
X0136360Y0028226D01*
X0136364Y0028206D01*
X0136599Y0027814D01*
X0136827Y0027419D01*
X0136844Y0027406D01*
X0136854Y0027388D01*
X0137221Y0027117D01*
X0137583Y0026839D01*
X0137604Y0026833D01*
X0137967Y0026564D01*
X0137983Y0026552D01*
X0138319Y0026304D01*
X0138361Y0026273D01*
X0138361Y0026272D01*
X0138732Y0025998D01*
X0138749Y0025985D01*
X0138749Y0025985D01*
X0139031Y0025777D01*
X0139215Y0025639D01*
X0139451Y0025462D01*
X0139776Y0025219D01*
X0140072Y0024995D01*
X0140120Y0024959D01*
X0140690Y0024527D01*
X0140998Y0024293D01*
X0141589Y0023842D01*
X0141736Y0023729D01*
X0142111Y0023440D01*
X0142488Y0023148D01*
X0142489Y0023147D01*
X0142530Y0023116D01*
X0142621Y0023046D01*
X0142621Y0023046D01*
X0142752Y0022945D01*
X0143376Y0022463D01*
X0143506Y0022363D01*
X0143506Y0022362D01*
X0143887Y0022069D01*
X0144014Y0021970D01*
X0144033Y0021952D01*
X0144239Y0021700D01*
X0144254Y0021677D01*
X0144327Y0021528D01*
X0144397Y0021386D01*
X0144406Y0021361D01*
X0144463Y0021115D01*
X0144480Y0021044D01*
X0144483Y0021017D01*
X0144483Y0015265D01*
X0144473Y0015217D01*
X0144256Y0014704D01*
X0144228Y0014663D01*
X0144029Y0014464D01*
X0143836Y0014271D01*
X0143794Y0014242D01*
X0143281Y0014025D01*
X0143234Y0014015D01*
X0040767Y0014015D01*
X0040720Y0014025D01*
X0040207Y0014242D01*
X0040166Y0014270D01*
X0039882Y0014555D01*
X0039774Y0014663D01*
X0039746Y0014704D01*
X0039529Y0015217D01*
X0039519Y0015264D01*
X0039519Y0021067D01*
X0039522Y0021094D01*
X0039558Y0021245D01*
X0039598Y0021416D01*
X0039608Y0021441D01*
X0039755Y0021735D01*
X0039769Y0021758D01*
X0039910Y0021927D01*
X0039980Y0022012D01*
X0040000Y0022030D01*
X0040135Y0022132D01*
X0040515Y0022417D01*
X0040515Y0022417D01*
X0041372Y0023061D01*
X0041372Y0023061D01*
X0043754Y0024849D01*
X0044611Y0025492D01*
X0046559Y0026955D01*
X0046902Y0027184D01*
X0046939Y0027240D01*
X0046992Y0027280D01*
X0047202Y0027635D01*
X0047431Y0027978D01*
X0047444Y0028043D01*
X0047478Y0028101D01*
X0047536Y0028509D01*
X0047779Y0029738D01*
X0047780Y0029740D01*
X0047812Y0029901D01*
X0047813Y0029903D01*
X0047846Y0030070D01*
X0047878Y0030238D01*
X0047880Y0030240D01*
X0047913Y0030416D01*
X0047915Y0030418D01*
X0047936Y0030532D01*
X0047964Y0030671D01*
X0047964Y0030673D01*
X0047995Y0030834D01*
X0047995Y0030836D01*
X0048013Y0030934D01*
X0048023Y0030983D01*
X0048024Y0030984D01*
X0048037Y0031054D01*
X0048060Y0031172D01*
X0048059Y0031174D01*
X0048060Y0031179D01*
X0048093Y0031350D01*
X0048092Y0031352D01*
X0048100Y0031394D01*
X0048101Y0031395D01*
X0048121Y0031504D01*
X0048142Y0031613D01*
X0048142Y0031613D01*
X0048145Y0031627D01*
X0048162Y0031720D01*
X0048162Y0031722D01*
X0048173Y0031779D01*
X0048199Y0031917D01*
X0048198Y0031919D01*
X0048207Y0031963D01*
X0048259Y0032245D01*
X0048354Y0032619D01*
X0048342Y0032700D01*
X0048357Y0032780D01*
X0048273Y0033169D01*
X0048216Y0033562D01*
X0048174Y0033632D01*
X0048157Y0033713D01*
X0047931Y0034040D01*
X0047728Y0034381D01*
X0047662Y0034430D01*
X0047616Y0034498D01*
X0047282Y0034714D01*
X0046963Y0034951D01*
X0046884Y0034971D01*
X0046815Y0035016D01*
X0046424Y0035088D01*
X0046039Y0035185D01*
X0045991Y0035178D01*
X0045989Y0035178D01*
X0045956Y0035174D01*
X0045878Y0035188D01*
X0045489Y0035105D01*
X0045474Y0035103D01*
X0045454Y0035100D01*
X0045407Y0035094D01*
X0045393Y0035092D01*
X0045347Y0035086D01*
X0045342Y0035086D01*
X0045218Y0035088D01*
X0044710Y0035094D01*
X0044292Y0035099D01*
X0044201Y0035100D01*
X0044201Y0035100D01*
X0043884Y0035104D01*
X0043626Y0035107D01*
X0043626Y0035107D01*
X0043380Y0035110D01*
X0043380Y0035110D01*
X0043257Y0035112D01*
X0043215Y0035112D01*
X0043215Y0035113D02*
X0042833Y0035117D01*
X0042673Y0035119D01*
X0042673Y0035119D01*
X0042426Y0035122D01*
X0042363Y0035123D01*
X0041952Y0035143D01*
X0041929Y0035145D01*
X0041631Y0035167D01*
X0040979Y0035216D01*
X0040979Y0035216D01*
X0040953Y0035218D01*
X0040434Y0035268D01*
X0039863Y0035334D01*
X0039331Y0035395D01*
X0038796Y0035467D01*
X0038733Y0035477D01*
X0038517Y0035510D01*
X0037791Y0035622D01*
X0037731Y0035631D01*
X0037258Y0035715D01*
X0036824Y0035804D01*
X0036377Y0035896D01*
X0035914Y0035999D01*
X0035238Y0036159D01*
X0034915Y0036236D01*
X0034413Y0036361D01*
X0033411Y0036624D01*
X0032941Y0036753D01*
X0032811Y0036790D01*
X0032060Y0037008D01*
X0031692Y0037121D01*
X0031374Y0037228D01*
X0029792Y0037762D01*
X0028330Y0038433D01*
X0026408Y0039543D01*
X0025311Y0040176D01*
X0023955Y0041135D01*
X0022985Y0041960D01*
X0021289Y0043401D01*
X0020148Y0044563D01*
X0019387Y0045504D01*
X0018028Y0047182D01*
X0017199Y0048446D01*
X0016712Y0049419D01*
X0016712Y0049420D01*
X0016659Y0049525D01*
X0016659Y0049533D01*
X0016607Y0049634D01*
X0016607Y0049640D01*
X0016507Y0049832D01*
X0016507Y0049839D01*
X0016457Y0049933D01*
X0016457Y0049938D01*
X0016410Y0050026D01*
X0016410Y0050026D01*
X0016361Y0050119D01*
X0016361Y0050123D01*
X0016329Y0050184D01*
X0016314Y0050214D01*
X0016313Y0050215D01*
X0016285Y0050271D01*
X0016285Y0050272D01*
X0016235Y0050370D01*
X0016229Y0050375D01*
X0016177Y0050478D01*
X0016172Y0050482D01*
X0016089Y0050643D01*
X0015906Y0051672D01*
X0015543Y0053709D01*
X0015234Y0055441D01*
X0015176Y0055769D01*
X0015067Y0056380D01*
X0014854Y0057576D01*
X0014854Y0057596D01*
X0014856Y0057861D01*
X0014857Y0057862D01*
X0014860Y0058339D01*
X0014862Y0058546D01*
X0014886Y0058897D01*
X0014910Y0059245D01*
X0014959Y0059834D01*
X0015013Y0060372D01*
X0015090Y0061145D01*
X0015107Y0061321D01*
X0015162Y0061871D01*
X0015314Y0063291D01*
X0015540Y0065278D01*
X0015771Y0067310D01*
X0016075Y0069896D01*
X0016476Y0073211D01*
X0016502Y0073427D01*
X0016503Y0073428D01*
X0016559Y0073892D01*
X0016617Y0074372D01*
X0016617Y0074373D01*
X0016619Y0074395D01*
X0016620Y0074395D01*
X0016676Y0074868D01*
X0016733Y0075341D01*
X0016733Y0075341D01*
X0016773Y0075675D01*
X0016878Y0076550D01*
X0016878Y0076550D01*
X0016935Y0077032D01*
X0016991Y0077496D01*
X0016991Y0077497D01*
X0017020Y0077739D01*
X0017020Y0077739D01*
X0017073Y0078182D01*
X0017133Y0078686D01*
X0017284Y0079952D01*
X0017335Y0080382D01*
X0017397Y0080898D01*
X0017397Y0080899D01*
X0017406Y0080976D01*
X0017468Y0081495D01*
X0017519Y0081922D01*
X0017519Y0081922D01*
X0017584Y0082470D01*
X0017640Y0082942D01*
X0017641Y0082943D01*
X0017676Y0083242D01*
X0017677Y0083244D01*
X0017710Y0083530D01*
X0017711Y0083533D01*
X0017736Y0083750D01*
X0017752Y0083887D01*
X0017752Y0083889D01*
X0017774Y0084074D01*
X0017774Y0084075D01*
X0017776Y0084090D01*
X0017787Y0084186D01*
X0017787Y0084188D01*
X0017798Y0084293D01*
X0017803Y0084331D01*
X0017804Y0084333D01*
X0017818Y0084461D01*
X0017820Y0084475D01*
X0017819Y0084476D01*
X0017841Y0084669D01*
X0017856Y0084807D01*
X0017857Y0084808D01*
X0017865Y0084883D01*
X0017880Y0085017D01*
X0017880Y0085019D01*
X0017881Y0085027D01*
X0017882Y0085030D01*
X0017901Y0085212D01*
X0017908Y0085276D01*
X0017908Y0085277D01*
X0017920Y0085391D01*
X0017924Y0085425D01*
X0017925Y0085427D01*
X0017941Y0085580D01*
X0017943Y0085606D01*
X0017945Y0085608D01*
X0017957Y0085728D01*
X0017959Y0085751D01*
X0017965Y0085810D01*
X0017987Y0085856D01*
X0018010Y0086248D01*
X0018023Y0086369D01*
X0018022Y0086372D01*
X0018040Y0086550D01*
X0018039Y0086554D01*
X0018054Y0086707D01*
X0018040Y0086756D01*
X0018127Y0088264D01*
X0018212Y0089719D01*
X0018212Y0089719D01*
X0018328Y0091723D01*
X0018345Y0091763D01*
X0018355Y0092197D01*
X0018380Y0092631D01*
X0018366Y0092673D01*
X0018367Y0092716D01*
X0018210Y0093121D01*
X0018067Y0093532D01*
X0018038Y0093564D01*
X0018022Y0093605D01*
X0017722Y0093919D01*
X0017433Y0094244D01*
X0017394Y0094263D01*
X0017363Y0094295D01*
X0016966Y0094470D01*
X0016575Y0094659D01*
X0016531Y0094662D01*
X0016491Y0094679D01*
X0016056Y0094689D01*
X0015623Y0094714D01*
X0015581Y0094700D01*
X0015182Y0094709D01*
X0014895Y0094715D01*
X0014229Y0094730D01*
X0014124Y0094733D01*
X0013394Y0094749D01*
X0013256Y0094753D01*
X0013233Y0094755D01*
X0012989Y0094810D01*
X0012957Y0094818D01*
X0012935Y0094825D01*
X0012677Y0094940D01*
X0012657Y0094951D01*
X0012426Y0095114D01*
X0012409Y0095129D01*
X0012308Y0095236D01*
X0012214Y0095336D01*
X0012200Y0095354D01*
X0012051Y0095594D01*
X0012040Y0095614D01*
X0012022Y0095664D01*
X0011941Y0095878D01*
X0011935Y0095900D01*
X0011889Y0096179D01*
X0011888Y0096203D01*
X0011893Y0096350D01*
X0011939Y0097632D01*
X0012027Y0100078D01*
X0012095Y0101971D01*
X0012153Y0103591D01*
X0012229Y0104935D01*
X0012353Y0106267D01*
X0012454Y0107351D01*
X0012592Y0108326D01*
X0012694Y0108824D01*
X0012984Y0110249D01*
X0013211Y0111070D01*
X0013849Y0112925D01*
X0014224Y0113841D01*
X0014521Y0114500D01*
X0014720Y0114941D01*
X0014913Y0115369D01*
X0015441Y0116543D01*
X0016257Y0118012D01*
X0017425Y0119771D01*
X0018659Y0121526D02*
X0077647Y0121526D01*
X0079398Y0123924D02*
X0020770Y0123924D01*
X0023325Y0126323D02*
X0077000Y0126323D01*
X0077000Y0128721D02*
X0026674Y0128721D01*
X0027579Y0129173D02*
X0027579Y0129173D01*
X0028432Y0129599D02*
X0028432Y0129599D01*
X0031440Y0130893D02*
X0031440Y0130893D01*
X0032059Y0131120D02*
X0077241Y0131120D01*
X0079640Y0133518D02*
X0048463Y0133518D01*
X0049698Y0135917D02*
X0134514Y0135917D01*
X0133910Y0136712D02*
X0133910Y0136712D01*
X0132392Y0138315D02*
X0051576Y0138315D01*
X0054663Y0140714D02*
X0129578Y0140714D01*
X0128715Y0143112D02*
X0055743Y0143112D01*
X0055606Y0145511D02*
X0128673Y0145511D01*
X0128655Y0145685D02*
X0128655Y0145685D01*
X0128410Y0147909D02*
X0116070Y0147909D01*
X0116275Y0148114D02*
X0116275Y0155086D01*
X0114986Y0156375D01*
X0108014Y0156375D01*
X0106725Y0155086D01*
X0106725Y0148114D01*
X0108014Y0146825D01*
X0114986Y0146825D01*
X0116275Y0148114D01*
X0116275Y0150308D02*
X0128040Y0150308D01*
X0127605Y0152398D02*
X0127605Y0152398D01*
X0127525Y0152706D02*
X0116275Y0152706D01*
X0116256Y0155105D02*
X0126808Y0155105D01*
X0125876Y0157503D02*
X0114156Y0157503D01*
X0113478Y0156825D02*
X0116275Y0159622D01*
X0116275Y0163578D01*
X0113478Y0166375D01*
X0109522Y0166375D01*
X0106725Y0163578D01*
X0106725Y0159622D01*
X0109522Y0156825D01*
X0113478Y0156825D01*
X0116275Y0159902D02*
X0124772Y0159902D01*
X0123489Y0162300D02*
X0116275Y0162300D01*
X0115154Y0164699D02*
X0121813Y0164699D01*
X0119966Y0167097D02*
X0063951Y0167097D01*
X0066134Y0169314D02*
X0066134Y0169314D01*
X0066313Y0169496D02*
X0117770Y0169496D01*
X0114903Y0171894D02*
X0068912Y0171894D01*
X0072423Y0174293D02*
X0111640Y0174293D01*
X0109188Y0175605D02*
X0109188Y0175605D01*
X0107059Y0176691D02*
X0076693Y0176691D01*
X0079780Y0177794D02*
X0079780Y0177794D01*
X0082111Y0178549D02*
X0082111Y0178549D01*
X0084173Y0179090D02*
X0099681Y0179090D01*
X0094389Y0179717D02*
X0094389Y0179717D01*
X0107846Y0164699D02*
X0077654Y0164699D01*
X0078775Y0163578D02*
X0075978Y0166375D01*
X0072022Y0166375D01*
X0069225Y0163578D01*
X0069225Y0159622D01*
X0072022Y0156825D01*
X0075978Y0156825D01*
X0078775Y0159622D01*
X0078775Y0163578D01*
X0078775Y0162300D02*
X0106725Y0162300D01*
X0106725Y0159902D02*
X0078775Y0159902D01*
X0076656Y0157503D02*
X0108844Y0157503D01*
X0106744Y0155105D02*
X0078756Y0155105D01*
X0078775Y0155086D02*
X0077486Y0156375D01*
X0070514Y0156375D01*
X0069225Y0155086D01*
X0069225Y0148114D01*
X0070514Y0146825D01*
X0077486Y0146825D01*
X0078775Y0148114D01*
X0078775Y0155086D01*
X0078775Y0152706D02*
X0106725Y0152706D01*
X0106725Y0150308D02*
X0078775Y0150308D01*
X0078570Y0147909D02*
X0106930Y0147909D01*
X0105360Y0133518D02*
X0135701Y0133518D01*
X0141236Y0132431D02*
X0141236Y0132431D01*
X0152037Y0131120D02*
X0107759Y0131120D01*
X0108000Y0128721D02*
X0157437Y0128721D01*
X0160782Y0126323D02*
X0108000Y0126323D01*
X0105602Y0123924D02*
X0163367Y0123924D01*
X0165451Y0121526D02*
X0107353Y0121526D01*
X0108000Y0119127D02*
X0167105Y0119127D01*
X0168477Y0116729D02*
X0128948Y0116729D01*
X0129500Y0114330D02*
X0169593Y0114330D01*
X0168947Y0111932D02*
X0170468Y0111932D01*
X0170000Y0110878D02*
X0166778Y0114100D01*
X0162222Y0114100D01*
X0159000Y0110878D01*
X0159000Y0106322D01*
X0162222Y0103100D01*
X0166778Y0103100D01*
X0170000Y0106322D01*
X0170000Y0110878D01*
X0170000Y0109533D02*
X0171208Y0109533D01*
X0171662Y0107134D02*
X0170000Y0107134D01*
X0171764Y0105918D02*
X0171764Y0105918D01*
X0171820Y0104966D02*
X0171820Y0104966D01*
X0171834Y0104736D02*
X0168414Y0104736D01*
X0171911Y0102606D02*
X0171911Y0102606D01*
X0171919Y0102337D02*
X0155571Y0102337D01*
X0157969Y0099939D02*
X0171994Y0099939D01*
X0171986Y0100205D02*
X0171986Y0100205D01*
X0171941Y0101653D02*
X0171941Y0101653D01*
X0172069Y0097540D02*
X0158900Y0097540D01*
X0158900Y0098276D02*
X0158382Y0099526D01*
X0150000Y0107908D01*
X0150000Y0110878D01*
X0146778Y0114100D01*
X0142222Y0114100D01*
X0139000Y0110878D01*
X0139000Y0106322D01*
X0142222Y0103100D01*
X0145192Y0103100D01*
X0152100Y0096192D01*
X0152100Y0061844D01*
X0151500Y0060396D01*
X0151500Y0058804D01*
X0152109Y0057334D01*
X0153234Y0056209D01*
X0154704Y0055600D01*
X0156296Y0055600D01*
X0157766Y0056209D01*
X0158891Y0057334D01*
X0159500Y0058804D01*
X0159500Y0060396D01*
X0158900Y0061844D01*
X0158900Y0098276D01*
X0155500Y0097600D02*
X0144500Y0108600D01*
X0148947Y0111932D02*
X0160053Y0111932D01*
X0159000Y0109533D02*
X0150000Y0109533D01*
X0150774Y0107134D02*
X0159000Y0107134D01*
X0160586Y0104736D02*
X0153172Y0104736D01*
X0148353Y0099939D02*
X0128900Y0099939D01*
X0128900Y0097540D02*
X0150751Y0097540D01*
X0152100Y0095142D02*
X0128900Y0095142D01*
X0127452Y0092743D02*
X0152100Y0092743D01*
X0152100Y0090345D02*
X0124877Y0090345D01*
X0122329Y0087946D02*
X0152100Y0087946D01*
X0152100Y0085548D02*
X0119780Y0085548D01*
X0117232Y0083149D02*
X0152100Y0083149D01*
X0152100Y0080751D02*
X0114684Y0080751D01*
X0114556Y0078352D02*
X0152100Y0078352D01*
X0152100Y0075954D02*
X0116619Y0075954D01*
X0113500Y0074600D02*
X0113500Y0066600D01*
X0110100Y0071157D02*
X0073564Y0071157D01*
X0074332Y0070839D02*
X0072495Y0071600D01*
X0070505Y0071600D01*
X0068668Y0070839D01*
X0067500Y0069671D01*
X0065571Y0071600D01*
X0061429Y0071600D01*
X0058500Y0068671D01*
X0058500Y0064529D01*
X0061429Y0061600D01*
X0065571Y0061600D01*
X0067500Y0063529D01*
X0068668Y0062361D01*
X0070505Y0061600D01*
X0072495Y0061600D01*
X0074332Y0062361D01*
X0075739Y0063768D01*
X0076500Y0065605D01*
X0076500Y0067595D01*
X0075739Y0069432D01*
X0074332Y0070839D01*
X0076018Y0068758D02*
X0108982Y0068758D01*
X0108500Y0066360D02*
X0076500Y0066360D01*
X0075819Y0063961D02*
X0109181Y0063961D01*
X0116900Y0071157D02*
X0118986Y0071157D01*
X0116900Y0073555D02*
X0152100Y0073555D01*
X0152100Y0071157D02*
X0124014Y0071157D01*
X0126413Y0068758D02*
X0152100Y0068758D01*
X0152100Y0066360D02*
X0126500Y0066360D01*
X0125932Y0063961D02*
X0152100Y0063961D01*
X0151983Y0061563D02*
X0032017Y0061563D01*
X0031900Y0061844D02*
X0031900Y0096192D01*
X0039808Y0104100D01*
X0042778Y0104100D01*
X0046000Y0107322D01*
X0046000Y0111878D01*
X0042778Y0115100D01*
X0038222Y0115100D01*
X0035000Y0111878D01*
X0035000Y0108908D01*
X0026574Y0100482D01*
X0025618Y0099526D01*
X0025100Y0098276D01*
X0025100Y0061844D01*
X0024500Y0060396D01*
X0024500Y0058804D01*
X0025109Y0057334D01*
X0026234Y0056209D01*
X0027704Y0055600D01*
X0029296Y0055600D01*
X0030766Y0056209D01*
X0031891Y0057334D01*
X0032500Y0058804D01*
X0032500Y0060396D01*
X0031900Y0061844D01*
X0031900Y0063961D02*
X0059068Y0063961D01*
X0058500Y0066360D02*
X0031900Y0066360D01*
X0031900Y0068758D02*
X0058587Y0068758D01*
X0060986Y0071157D02*
X0031900Y0071157D01*
X0031900Y0073555D02*
X0109736Y0073555D01*
X0107338Y0075954D02*
X0031900Y0075954D01*
X0031900Y0078352D02*
X0071939Y0078352D01*
X0069541Y0080751D02*
X0031900Y0080751D01*
X0031900Y0083149D02*
X0067142Y0083149D01*
X0064744Y0085548D02*
X0031900Y0085548D01*
X0031900Y0087946D02*
X0062345Y0087946D01*
X0059947Y0090345D02*
X0031900Y0090345D01*
X0031900Y0092743D02*
X0057548Y0092743D01*
X0055150Y0095142D02*
X0031900Y0095142D01*
X0033249Y0097540D02*
X0054100Y0097540D01*
X0054100Y0099939D02*
X0035647Y0099939D01*
X0038046Y0102337D02*
X0054100Y0102337D01*
X0054100Y0104736D02*
X0043414Y0104736D01*
X0045813Y0107134D02*
X0054100Y0107134D01*
X0054100Y0109533D02*
X0046000Y0109533D01*
X0045947Y0111932D02*
X0054100Y0111932D01*
X0053500Y0114330D02*
X0043548Y0114330D01*
X0040500Y0109600D02*
X0028500Y0097600D01*
X0028500Y0059600D01*
X0025677Y0056766D02*
X0014998Y0056766D01*
X0015067Y0056380D02*
X0015067Y0056380D01*
X0015425Y0054367D02*
X0168523Y0054367D01*
X0168547Y0054568D02*
X0168547Y0054568D01*
X0168235Y0051969D02*
X0015853Y0051969D01*
X0016314Y0050214D02*
X0016314Y0050214D01*
X0016640Y0049570D02*
X0167472Y0049570D01*
X0166093Y0047172D02*
X0018037Y0047172D01*
X0019387Y0045504D02*
X0019387Y0045504D01*
X0019978Y0044773D02*
X0164116Y0044773D01*
X0161762Y0042375D02*
X0022497Y0042375D01*
X0022985Y0041960D02*
X0022985Y0041960D01*
X0025658Y0039976D02*
X0158415Y0039976D01*
X0160218Y0041250D02*
X0160218Y0041250D01*
X0153452Y0037578D02*
X0030338Y0037578D01*
X0026408Y0039543D02*
X0026408Y0039543D01*
X0041471Y0035179D02*
X0045836Y0035179D01*
X0045926Y0035179D02*
X0045998Y0035179D01*
X0046063Y0035179D02*
X0138251Y0035179D01*
X0138269Y0035179D02*
X0142676Y0035179D01*
X0141816Y0035111D02*
X0141816Y0035111D01*
X0135722Y0032781D02*
X0048357Y0032781D01*
X0047907Y0030382D02*
X0136068Y0030382D01*
X0136497Y0027984D02*
X0047432Y0027984D01*
X0047846Y0030070D02*
X0047846Y0030070D01*
X0044735Y0025585D02*
X0139287Y0025585D01*
X0137983Y0026552D02*
X0137983Y0026552D01*
X0141736Y0023729D02*
X0141736Y0023729D01*
X0142437Y0023187D02*
X0041540Y0023187D01*
X0043754Y0024849D02*
X0043754Y0024849D01*
X0044611Y0025492D02*
X0044611Y0025492D01*
X0039519Y0020788D02*
X0144483Y0020788D01*
X0143376Y0022463D02*
X0143376Y0022463D01*
X0144483Y0018390D02*
X0039519Y0018390D01*
X0039519Y0015991D02*
X0144483Y0015991D01*
X0152677Y0056766D02*
X0031323Y0056766D01*
X0032500Y0059164D02*
X0151500Y0059164D01*
X0155500Y0059600D02*
X0155500Y0097600D01*
X0158900Y0095142D02*
X0171602Y0095142D01*
X0170451Y0094746D02*
X0170451Y0094746D01*
X0169498Y0094724D02*
X0169498Y0094724D01*
X0165747Y0092743D02*
X0158900Y0092743D01*
X0158900Y0090345D02*
X0165868Y0090345D01*
X0165877Y0090210D02*
X0165877Y0090210D01*
X0165909Y0089704D02*
X0165909Y0089704D01*
X0166022Y0087946D02*
X0158900Y0087946D01*
X0158900Y0085548D02*
X0166230Y0085548D01*
X0166472Y0083149D02*
X0158900Y0083149D01*
X0158900Y0080751D02*
X0166711Y0080751D01*
X0166731Y0080570D02*
X0166731Y0080570D01*
X0166537Y0082456D02*
X0166537Y0082456D01*
X0166980Y0078352D02*
X0158900Y0078352D01*
X0158900Y0075954D02*
X0167257Y0075954D01*
X0167102Y0077345D02*
X0167102Y0077345D01*
X0167499Y0073555D02*
X0158900Y0073555D01*
X0158900Y0071157D02*
X0167738Y0071157D01*
X0168068Y0068758D02*
X0158900Y0068758D01*
X0158900Y0066360D02*
X0168402Y0066360D01*
X0168570Y0064941D02*
X0168570Y0064941D01*
X0168674Y0063993D02*
X0168674Y0063993D01*
X0168678Y0063961D02*
X0158900Y0063961D01*
X0159017Y0061563D02*
X0168914Y0061563D01*
X0168900Y0061706D02*
X0168900Y0061706D01*
X0169098Y0059164D02*
X0159500Y0059164D01*
X0158323Y0056766D02*
X0168811Y0056766D01*
X0145954Y0102337D02*
X0128900Y0102337D01*
X0128900Y0104736D02*
X0140586Y0104736D01*
X0139000Y0107134D02*
X0128900Y0107134D01*
X0128900Y0109533D02*
X0139000Y0109533D01*
X0140053Y0111932D02*
X0128900Y0111932D01*
X0125500Y0114600D02*
X0125500Y0095600D01*
X0108500Y0079600D01*
X0113500Y0074600D01*
X0108500Y0079600D02*
X0075500Y0079600D01*
X0057500Y0097600D01*
X0057500Y0114600D01*
X0054052Y0116729D02*
X0015545Y0116729D01*
X0014913Y0115369D02*
X0014913Y0115369D01*
X0014521Y0114500D02*
X0014521Y0114500D01*
X0014445Y0114330D02*
X0017452Y0114330D01*
X0018222Y0115100D02*
X0015000Y0111878D01*
X0015000Y0107322D01*
X0018222Y0104100D01*
X0022778Y0104100D01*
X0026000Y0107322D01*
X0026000Y0111878D01*
X0022778Y0115100D01*
X0018222Y0115100D01*
X0015053Y0111932D02*
X0013507Y0111932D01*
X0012838Y0109533D02*
X0015000Y0109533D01*
X0015187Y0107134D02*
X0012434Y0107134D01*
X0012217Y0104736D02*
X0017586Y0104736D01*
X0023414Y0104736D02*
X0030828Y0104736D01*
X0028429Y0102337D02*
X0012108Y0102337D01*
X0012022Y0099939D02*
X0026031Y0099939D01*
X0025100Y0097540D02*
X0011936Y0097540D01*
X0012397Y0095142D02*
X0025100Y0095142D01*
X0025100Y0092743D02*
X0018357Y0092743D01*
X0018248Y0090345D02*
X0025100Y0090345D01*
X0025100Y0087946D02*
X0018109Y0087946D01*
X0018127Y0088264D02*
X0018127Y0088264D01*
X0017959Y0085751D02*
X0017959Y0085751D01*
X0017937Y0085548D02*
X0025100Y0085548D01*
X0025100Y0083149D02*
X0017665Y0083149D01*
X0017584Y0082470D02*
X0017584Y0082470D01*
X0017406Y0080976D02*
X0017406Y0080976D01*
X0017379Y0080751D02*
X0025100Y0080751D01*
X0025100Y0078352D02*
X0017093Y0078352D01*
X0017133Y0078686D02*
X0017133Y0078686D01*
X0017284Y0079952D02*
X0017284Y0079952D01*
X0016806Y0075954D02*
X0025100Y0075954D01*
X0025100Y0073555D02*
X0016518Y0073555D01*
X0016227Y0071157D02*
X0025100Y0071157D01*
X0025100Y0068758D02*
X0015941Y0068758D01*
X0015663Y0066360D02*
X0025100Y0066360D01*
X0025100Y0063961D02*
X0015390Y0063961D01*
X0015131Y0061563D02*
X0024983Y0061563D01*
X0024500Y0059164D02*
X0014904Y0059164D01*
X0015013Y0060372D02*
X0015013Y0060372D01*
X0041929Y0035145D02*
X0041929Y0035145D01*
X0042426Y0035122D02*
X0042426Y0035122D01*
X0043215Y0035112D02*
X0043215Y0035113D01*
X0066014Y0071157D02*
X0069436Y0071157D01*
X0076759Y0083149D02*
X0107310Y0083149D01*
X0106819Y0085531D02*
X0108169Y0086881D01*
X0108900Y0088645D01*
X0108900Y0090555D01*
X0108169Y0092319D01*
X0106819Y0093669D01*
X0105055Y0094400D01*
X0097945Y0094400D01*
X0096181Y0093669D01*
X0094831Y0092319D01*
X0094100Y0090555D01*
X0094100Y0088645D01*
X0094831Y0086881D01*
X0096181Y0085531D01*
X0097945Y0084800D01*
X0105055Y0084800D01*
X0106819Y0085531D01*
X0106836Y0085548D02*
X0109859Y0085548D01*
X0108611Y0087946D02*
X0112407Y0087946D01*
X0114956Y0090345D02*
X0108900Y0090345D01*
X0107745Y0092743D02*
X0117504Y0092743D01*
X0120052Y0095142D02*
X0105880Y0095142D01*
X0108442Y0097540D02*
X0122100Y0097540D01*
X0122100Y0099939D02*
X0108900Y0099939D01*
X0108231Y0107134D02*
X0122100Y0107134D01*
X0122100Y0109533D02*
X0108900Y0109533D01*
X0108299Y0111932D02*
X0122100Y0111932D01*
X0121500Y0114330D02*
X0106008Y0114330D01*
X0108000Y0116729D02*
X0122052Y0116729D01*
X0099398Y0123924D02*
X0085602Y0123924D01*
X0087353Y0121526D02*
X0097647Y0121526D01*
X0097000Y0119127D02*
X0088000Y0119127D01*
X0088000Y0116729D02*
X0097000Y0116729D01*
X0098081Y0114330D02*
X0086224Y0114330D01*
X0089330Y0111932D02*
X0094701Y0111932D01*
X0094100Y0109533D02*
X0089900Y0109533D01*
X0089274Y0107134D02*
X0094769Y0107134D01*
X0094849Y0102337D02*
X0089151Y0102337D01*
X0089169Y0102319D02*
X0087819Y0103669D01*
X0086055Y0104400D01*
X0078945Y0104400D01*
X0077181Y0103669D01*
X0075831Y0102319D01*
X0075100Y0100555D01*
X0075100Y0098645D01*
X0075831Y0096881D01*
X0077181Y0095531D01*
X0078945Y0094800D01*
X0086055Y0094800D01*
X0087819Y0095531D01*
X0089169Y0096881D01*
X0089900Y0098645D01*
X0089900Y0100555D01*
X0089169Y0102319D01*
X0089900Y0099939D02*
X0094100Y0099939D01*
X0094558Y0097540D02*
X0089442Y0097540D01*
X0086880Y0095142D02*
X0097120Y0095142D01*
X0095255Y0092743D02*
X0088745Y0092743D01*
X0088761Y0092727D02*
X0088227Y0093261D01*
X0087616Y0093705D01*
X0086943Y0094048D01*
X0086224Y0094282D01*
X0085478Y0094400D01*
X0082500Y0094400D01*
X0082500Y0089600D01*
X0082500Y0089600D01*
X0089900Y0089600D01*
X0089900Y0089978D01*
X0089782Y0090724D01*
X0089548Y0091443D01*
X0089205Y0092116D01*
X0088761Y0092727D01*
X0089842Y0090345D02*
X0094100Y0090345D01*
X0094389Y0087946D02*
X0089610Y0087946D01*
X0089548Y0087757D02*
X0089782Y0088476D01*
X0089900Y0089222D01*
X0089900Y0089600D01*
X0082500Y0089600D01*
X0082500Y0089600D01*
X0082500Y0094400D01*
X0079522Y0094400D01*
X0078776Y0094282D01*
X0078057Y0094048D01*
X0077384Y0093705D01*
X0076773Y0093261D01*
X0076239Y0092727D01*
X0075795Y0092116D01*
X0075452Y0091443D01*
X0075218Y0090724D01*
X0075100Y0089978D01*
X0075100Y0089600D01*
X0082500Y0089600D01*
X0082500Y0084800D01*
X0085478Y0084800D01*
X0086224Y0084918D01*
X0086943Y0085152D01*
X0087616Y0085495D01*
X0088227Y0085939D01*
X0088761Y0086473D01*
X0089205Y0087084D01*
X0089548Y0087757D01*
X0087689Y0085548D02*
X0096164Y0085548D01*
X0082500Y0085548D02*
X0082500Y0085548D01*
X0082500Y0084800D02*
X0082500Y0089600D01*
X0082500Y0089600D01*
X0082500Y0089600D01*
X0075100Y0089600D01*
X0075100Y0089222D01*
X0075218Y0088476D01*
X0075452Y0087757D01*
X0075795Y0087084D01*
X0076239Y0086473D01*
X0076773Y0085939D01*
X0077384Y0085495D01*
X0078057Y0085152D01*
X0078776Y0084918D01*
X0079522Y0084800D01*
X0082500Y0084800D01*
X0082500Y0087946D02*
X0082500Y0087946D01*
X0082500Y0090345D02*
X0082500Y0090345D01*
X0082500Y0092743D02*
X0082500Y0092743D01*
X0078120Y0095142D02*
X0064766Y0095142D01*
X0062368Y0097540D02*
X0075558Y0097540D01*
X0075100Y0099939D02*
X0060900Y0099939D01*
X0060900Y0102337D02*
X0075849Y0102337D01*
X0076255Y0092743D02*
X0067165Y0092743D01*
X0069563Y0090345D02*
X0075158Y0090345D01*
X0075390Y0087946D02*
X0071962Y0087946D01*
X0074360Y0085548D02*
X0077311Y0085548D01*
X0088000Y0126323D02*
X0097000Y0126323D01*
X0097000Y0128721D02*
X0088000Y0128721D01*
X0087759Y0131120D02*
X0097241Y0131120D01*
X0099640Y0133518D02*
X0085360Y0133518D01*
X0069430Y0147909D02*
X0055673Y0147909D01*
X0055743Y0148674D02*
X0055743Y0148674D01*
X0055994Y0150308D02*
X0069225Y0150308D01*
X0069225Y0152706D02*
X0056554Y0152706D01*
X0057289Y0155105D02*
X0069244Y0155105D01*
X0071344Y0157503D02*
X0058098Y0157503D01*
X0059176Y0159902D02*
X0069225Y0159902D01*
X0069225Y0162300D02*
X0060604Y0162300D01*
X0060565Y0162236D02*
X0060565Y0162236D01*
X0062092Y0164699D02*
X0070346Y0164699D01*
X0037452Y0114330D02*
X0023548Y0114330D01*
X0025947Y0111932D02*
X0035053Y0111932D01*
X0035000Y0109533D02*
X0026000Y0109533D01*
X0025813Y0107134D02*
X0033226Y0107134D01*
X0015182Y0094709D02*
X0015182Y0094709D01*
X0014229Y0094730D02*
X0014229Y0094730D01*
D18*
X0028500Y0059600D03*
X0057500Y0114600D03*
X0125500Y0114600D03*
X0155500Y0059600D03*
M02*
