  0
SECTION
  2
HEADER
  9
$ACADVER
  1
AC1012
  9
$DWGCODEPAGE
  3
undefined
  9
$INSBASE
 10
0.0
 20
0.0
 30
0.0
  9
$EXTMIN
 10
1.000000000000000E+20
 20
1.000000000000000E+20
 30
1.000000000000000E+20
  9
$EXTMAX
 10
-1.000000000000000E+20
 20
-1.000000000000000E+20
 30
-1.000000000000000E+20
  9
$LIMMIN
 10
0.0
 20
0.0
  9
$LIMMAX
 10
12.0
 20
9.0
  9
$ORTHOMODE
 70
     0
  9
$REGENMODE
 70
     1
  9
$FILLMODE
 70
     1
  9
$QTEXTMODE
 70
     0
  9
$MIRRTEXT
 70
     1
  9
$DRAGMODE
 70
     2
  9
$LTSCALE
 40
1.0
  9
$OSMODE
 70
    37
  9
$ATTMODE
 70
     1
  9
$TEXTSIZE
 40
0.2
  9
$TRACEWID
 40
0.05
  9
$TEXTSTYLE
  7
STANDARD
  9
$CLAYER
  8
0
  9
$CELTYPE
  6
BYLAYER
  9
$CECOLOR
 62
   256
  9
$CELTSCALE
 40
1.0
  9
$DELOBJ
 70
     1
  9
$DISPSILH
 70
     0
  9
$DIMSCALE
 40
1.0
  9
$DIMASZ
 40
0.18
  9
$DIMEXO
 40
0.0625
  9
$DIMDLI
 40
0.38
  9
$DIMRND
 40
0.0
  9
$DIMDLE
 40
0.0
  9
$DIMEXE
 40
0.18
  9
$DIMTP
 40
0.0
  9
$DIMTM
 40
0.0
  9
$DIMTXT
 40
0.18
  9
$DIMCEN
 40
0.09
  9
$DIMTSZ
 40
0.0
  9
$DIMTOL
 70
     0
  9
$DIMLIM
 70
     0
  9
$DIMTIH
 70
     1
  9
$DIMTOH
 70
     1
  9
$DIMSE1
 70
     0
  9
$DIMSE2
 70
     0
  9
$DIMTAD
 70
     0
  9
$DIMZIN
 70
     0
  9
$DIMBLK
  1

  9
$DIMASO
 70
     1
  9
$DIMSHO
 70
     1
  9
$DIMPOST
  1

  9
$DIMAPOST
  1

  9
$DIMALT
 70
     0
  9
$DIMALTD
 70
     2
  9
$DIMALTF
 40
25.4
  9
$DIMLFAC
 40
1.0
  9
$DIMTOFL
 70
     0
  9
$DIMTVP
 40
0.0
  9
$DIMTIX
 70
     0
  9
$DIMSOXD
 70
     0
  9
$DIMSAH
 70
     0
  9
$DIMBLK1
  1

  9
$DIMBLK2
  1

  9
$DIMSTYLE
  2
STANDARD
  9
$DIMCLRD
 70
     0
  9
$DIMCLRE
 70
     0
  9
$DIMCLRT
 70
     0
  9
$DIMTFAC
 40
1.0
  9
$DIMGAP
 40
0.09
  9
$DIMJUST
 70
     0
  9
$DIMSD1
 70
     0
  9
$DIMSD2
 70
     0
  9
$DIMTOLJ
 70
     1
  9
$DIMTZIN
 70
     0
  9
$DIMALTZ
 70
     0
  9
$DIMALTTZ
 70
     0
  9
$DIMFIT
 70
     3
  9
$DIMUPT
 70
     0
  9
$DIMUNIT
 70
     2
  9
$DIMDEC
 70
     4
  9
$DIMTDEC
 70
     4
  9
$DIMALTU
 70
     2
  9
$DIMALTTD
 70
     2
  9
$DIMTXSTY
  7
STANDARD
  9
$DIMAUNIT
 70
     0
  9
$LUNITS
 70
     2
  9
$LUPREC
 70
     4
  9
$SKETCHINC
 40
0.1
  9
$FILLETRAD
 40
0.5
  9
$AUNITS
 70
     0
  9
$AUPREC
 70
     0
  9
$MENU
  1
.
  9
$ELEVATION
 40
0.0
  9
$PELEVATION
 40
0.0
  9
$THICKNESS
 40
0.0
  9
$LIMCHECK
 70
     0
  9
$CHAMFERA
 40
0.5
  9
$CHAMFERB
 40
0.5
  9
$CHAMFERC
 40
1.0
  9
$CHAMFERD
 40
0.0
  9
$SKPOLY
 70
     0
  9
$TDCREATE
 40
2458032.414872674
  9
$TDUPDATE
 40
2458032.414872674
  9
$TDINDWG
 40
0.0000000116
  9
$TDUSRTIMER
 40
0.0000000116
  9
$USRTIMER
 70
     1
  9
$ANGBASE
 50
0.0
  9
$ANGDIR
 70
     0
  9
$PDMODE
 70
     0
  9
$PDSIZE
 40
0.0
  9
$PLINEWID
 40
0.0
  9
$COORDS
 70
     1
  9
$SPLFRAME
 70
     0
  9
$SPLINETYPE
 70
     6
  9
$SPLINESEGS
 70
     8
  9
$ATTDIA
 70
     0
  9
$ATTREQ
 70
     1
  9
$HANDLING
 70
     1
  9
$HANDSEED
  5
4D
  9
$SURFTAB1
 70
     6
  9
$SURFTAB2
 70
     6
  9
$SURFTYPE
 70
     6
  9
$SURFU
 70
     6
  9
$SURFV
 70
     6
  9
$UCSNAME
  2

  9
$UCSORG
 10
0.0
 20
0.0
 30
0.0
  9
$UCSXDIR
 10
1.0
 20
0.0
 30
0.0
  9
$UCSYDIR
 10
0.0
 20
1.0
 30
0.0
  9
$PUCSNAME
  2

  9
$PUCSORG
 10
0.0
 20
0.0
 30
0.0
  9
$PUCSXDIR
 10
1.0
 20
0.0
 30
0.0
  9
$PUCSYDIR
 10
0.0
 20
1.0
 30
0.0
  9
$USERI1
 70
     0
  9
$USERI2
 70
     0
  9
$USERI3
 70
     0
  9
$USERI4
 70
     0
  9
$USERI5
 70
     0
  9
$USERR1
 40
0.0
  9
$USERR2
 40
0.0
  9
$USERR3
 40
0.0
  9
$USERR4
 40
0.0
  9
$USERR5
 40
0.0
  9
$WORLDVIEW
 70
     1
  9
$SHADEDGE
 70
     3
  9
$SHADEDIF
 70
    70
  9
$TILEMODE
 70
     1
  9
$MAXACTVP
 70
    64
  9
$PINSBASE
 10
0.0
 20
0.0
 30
0.0
  9
$PLIMCHECK
 70
     0
  9
$PEXTMIN
 10
1.000000000000000E+20
 20
1.000000000000000E+20
 30
1.000000000000000E+20
  9
$PEXTMAX
 10
-1.000000000000000E+20
 20
-1.000000000000000E+20
 30
-1.000000000000000E+20
  9
$PLIMMIN
 10
0.0
 20
0.0
  9
$PLIMMAX
 10
12.0
 20
9.0
  9
$UNITMODE
 70
     0
  9
$VISRETAIN
 70
     1
  9
$PLINEGEN
 70
     0
  9
$PSLTSCALE
 70
     1
  9
$TREEDEPTH
 70
  3020
  9
$PICKSTYLE
 70
     1
  9
$CMLSTYLE
  2
STANDARD
  9
$CMLJUST
 70
     0
  9
$CMLSCALE
 40
1.0
  9
$SAVEIMAGES
 70
     1
  0
ENDSEC
  0
SECTION
  2
CLASSES
  0
CLASS
  1
ACDBDICTIONARYWDFLT
  2
AcDbDictionaryWithDefault
  3
ObjectDBX Classes
 90
    32768
280
     0
281
     0
  0
CLASS
  1
VISUALSTYLE
  2
AcDbVisualStyle
  3
ObjectDBX Classes
 90
     4095
280
     0
281
     0
  0
CLASS
  1
MATERIAL
  2
AcDbMaterial
  3
ObjectDBX Classes
 90
     1153
280
     0
281
     0
  0
CLASS
  1
SUN
  2
AcDbSun
  3
SCENEOE
 90
     1024
280
     0
281
     0
  0
CLASS
  1
DICTIONARYVAR
  2
AcDbDictionaryVar
  3
ObjectDBX Classes
 90
        0
280
     0
281
     0
  0
CLASS
  1
XRECORD
  2
AcDbXrecord
  3
AutoCAD 2000
 90
    32768
280
     0
281
     0
  0
CLASS
  1
LWPOLYLINE
  2
AcDbPolyline
  3
AutoCAD 2000
 90
    32768
280
     0
281
     1
  0
CLASS
  1
HATCH
  2
AcDbHatch
  3
AutoCAD 2000
 90
    32768
280
     0
281
     1
  0
CLASS
  1
ACDBPLACEHOLDER
  2
AcDbPlaceHolder
  3
ObjectDBX Classes
 90
        0
280
     0
281
     0
  0
CLASS
  1
LAYOUT
  2
AcDbLayout
  3
ObjectDBX Classes
 90
        0
280
     0
281
     0
  0
ENDSEC
  0
SECTION
  2
TABLES
  0
TABLE
  2
VPORT
  5
8
330
0
100
AcDbSymbolTable
 70
     1
  0
VPORT
  5
29
330
8
100
AcDbSymbolTableRecord
100
AcDbViewportTableRecord
  2
*ACTIVE
 70
     0
 10
0.0
 20
0.0
 11
1.0
 21
1.0
 12
0.0
 22
0.0
 13
0.0
 23
0.0
 14
0.5
 24
0.5
 15
0.5
 25
0.5
 16
0.0
 26
0.0
 36
1.0
 17
105.0007777515277
 27
-148.5000416295416
 37
0.0
 40
297.0000832590831
 41
0.7070757462376333
 42
50.0
 43
0.0
 44
0.0
 50
0.0
 51
0.0
 71
     0
 72
   100
 73
     1
 74
     3
 75
     0
 76
     0
 77
     0
 78
     0
  0
ENDTAB
  0
TABLE
  2
LTYPE
  5
5
330
0
100
AcDbSymbolTable
 70
     1
  0
LTYPE
  5
14
330
5
100
AcDbSymbolTableRecord
100
AcDbLinetypeTableRecord
  2
BYBLOCK
 70
     0
  3

 72
    65
 73
     0
 40
0.0
  0
LTYPE
  5
15
330
5
100
AcDbSymbolTableRecord
100
AcDbLinetypeTableRecord
  2
BYLAYER
 70
     0
  3

 72
    65
 73
     0
 40
0.0
  0
LTYPE
  5
16
330
5
100
AcDbSymbolTableRecord
100
AcDbLinetypeTableRecord
  2
CONTINUOUS
 70
     0
  3
Solid line
 72
    65
 73
     0
 40
0.0
  0
ENDTAB
  0
TABLE
  2
LAYER
  5
2
330
0
100
AcDbSymbolTable
 70
     2
  0
LAYER
  5
10
330
2
100
AcDbSymbolTableRecord
100
AcDbLayerTableRecord
  2
0
 70
     0
 62
     7
  6
CONTINUOUS
  0
LAYER
  5
40
330
2
100
AcDbSymbolTableRecord
100
AcDbLayerTableRecord
  2
LIVELLO_1
 70
     0
 62
     7
  6
CONTINUOUS
  0
ENDTAB
  0
TABLE
  2
STYLE
  5
3
330
0
100
AcDbSymbolTable
 70
     1
  0
STYLE
  5
11
330
3
100
AcDbSymbolTableRecord
100
AcDbTextStyleTableRecord
  2
STANDARD
 70
     0
 40
0.0
 41
1.0
 50
0.0
 71
     0
 42
0.2
  3
txt
  4

  0
ENDTAB
  0
TABLE
  2
VIEW
  5
6
330
0
100
AcDbSymbolTable
 70
     0
  0
ENDTAB
  0
TABLE
  2
UCS
  5
7
330
0
100
AcDbSymbolTable
 70
     0
  0
ENDTAB
  0
TABLE
  2
APPID
  5
9
330
0
100
AcDbSymbolTable
 70
     1
  0
APPID
  5
12
330
9
100
AcDbSymbolTableRecord
100
AcDbRegAppTableRecord
  2
ACAD
 70
     0
  0
ENDTAB
  0
TABLE
  2
DIMSTYLE
  5
A
330
0
100
AcDbSymbolTable
 70
     1
  0
DIMSTYLE
105
27
330
A
100
AcDbSymbolTableRecord
100
AcDbDimStyleTableRecord
  2
STANDARD
 70
     0
  3

  4

  5

  6

  7

 40
1.0
 41
0.18
 42
0.0625
 43
0.38
 44
0.18
 45
0.0
 46
0.0
 47
0.0
 48
0.0
140
0.18
141
0.09
142
0.0
143
25.4
144
1.0
145
0.0
146
1.0
147
0.09
 71
     0
 72
     0
 73
     1
 74
     1
 75
     0
 76
     0
 77
     0
 78
     0
170
     0
171
     2
172
     0
173
     0
174
     0
175
     0
176
     0
177
     0
178
     0
270
     2
271
     4
272
     4
273
     2
274
     2
340
11
275
     0
280
     0
281
     0
282
     0
283
     1
284
     0
285
     0
286
     0
287
     3
288
     0
  0
ENDTAB
  0
TABLE
  2
BLOCK_RECORD
  5
1
330
0
100
AcDbSymbolTable
 70
     1
  0
BLOCK_RECORD
  5
1F
330
1
100
AcDbSymbolTableRecord
100
AcDbBlockTableRecord
  2
*MODEL_SPACE
  0
BLOCK_RECORD
  5
1B
330
1
100
AcDbSymbolTableRecord
100
AcDbBlockTableRecord
  2
*PAPER_SPACE
  0
ENDTAB
  0
ENDSEC
  0
SECTION
  2
BLOCKS
  0
BLOCK
  5
20
330
1F
100
AcDbEntity
  8
0
100
AcDbBlockBegin
  2
*MODEL_SPACE
 70
     0
 10
0.0
 20
0.0
 30
0.0
  3
*MODEL_SPACE
  1

  0
ENDBLK
  5
21
330
1F
100
AcDbEntity
  8
0
100
AcDbBlockEnd
  0
BLOCK
  5
1C
330
1B
100
AcDbEntity
 67
     1
  8
0
100
AcDbBlockBegin
  2
*PAPER_SPACE
 70
     0
 10
0.0
 20
0.0
 30
0.0
  3
*PAPER_SPACE
  1

  0
ENDBLK
  5
1D
330
1B
100
AcDbEntity
 67
     1
  8
0
100
AcDbBlockEnd
  0
ENDSEC
  0
SECTION
  2
ENTITIES
  0
SPLINE
  5
41
330
1F
100
AcDbEntity
  8
LIVELLO_1
 62
   250
100
AcDbSpline
210
0.0
220
0.0
230
1.0
 70
    11
 71
     3
 72
   917
 73
   913
 74
     0
 42
0.0000000001
 43
0.0000000001
 12
1.0
 22
0.0
 32
0.0
 13
1.0
 23
0.0
 33
0.0
 40
0.0
 40
0.0
 40
0.0
 40
0.0
 40
1.0
 40
1.0
 40
1.0
 40
2.0
 40
2.0
 40
2.0
 40
3.0
 40
3.0
 40
3.0
 40
4.0
 40
4.0
 40
4.0
 40
5.0
 40
5.0
 40
5.0
 40
6.0
 40
6.0
 40
6.0
 40
7.0
 40
7.0
 40
7.0
 40
8.0
 40
8.0
 40
8.0
 40
9.0
 40
9.0
 40
9.0
 40
10.0
 40
10.0
 40
10.0
 40
11.0
 40
11.0
 40
11.0
 40
12.0
 40
12.0
 40
12.0
 40
13.0
 40
13.0
 40
13.0
 40
14.0
 40
14.0
 40
14.0
 40
15.0
 40
15.0
 40
15.0
 40
16.0
 40
16.0
 40
16.0
 40
17.0
 40
17.0
 40
17.0
 40
18.0
 40
18.0
 40
18.0
 40
19.0
 40
19.0
 40
19.0
 40
20.0
 40
20.0
 40
20.0
 40
21.0
 40
21.0
 40
21.0
 40
22.0
 40
22.0
 40
22.0
 40
23.0
 40
23.0
 40
23.0
 40
24.0
 40
24.0
 40
24.0
 40
25.0
 40
25.0
 40
25.0
 40
26.0
 40
26.0
 40
26.0
 40
27.0
 40
27.0
 40
27.0
 40
28.0
 40
28.0
 40
28.0
 40
29.0
 40
29.0
 40
29.0
 40
30.0
 40
30.0
 40
30.0
 40
31.0
 40
31.0
 40
31.0
 40
32.0
 40
32.0
 40
32.0
 40
33.0
 40
33.0
 40
33.0
 40
34.0
 40
34.0
 40
34.0
 40
35.0
 40
35.0
 40
35.0
 40
36.0
 40
36.0
 40
36.0
 40
37.0
 40
37.0
 40
37.0
 40
38.0
 40
38.0
 40
38.0
 40
39.0
 40
39.0
 40
39.0
 40
40.0
 40
40.0
 40
40.0
 40
41.0
 40
41.0
 40
41.0
 40
42.0
 40
42.0
 40
42.0
 40
43.0
 40
43.0
 40
43.0
 40
44.0
 40
44.0
 40
44.0
 40
45.0
 40
45.0
 40
45.0
 40
46.0
 40
46.0
 40
46.0
 40
47.0
 40
47.0
 40
47.0
 40
48.0
 40
48.0
 40
48.0
 40
49.0
 40
49.0
 40
49.0
 40
50.0
 40
50.0
 40
50.0
 40
51.0
 40
51.0
 40
51.0
 40
52.0
 40
52.0
 40
52.0
 40
53.0
 40
53.0
 40
53.0
 40
54.0
 40
54.0
 40
54.0
 40
55.0
 40
55.0
 40
55.0
 40
56.0
 40
56.0
 40
56.0
 40
57.0
 40
57.0
 40
57.0
 40
58.0
 40
58.0
 40
58.0
 40
59.0
 40
59.0
 40
59.0
 40
60.0
 40
60.0
 40
60.0
 40
61.0
 40
61.0
 40
61.0
 40
62.0
 40
62.0
 40
62.0
 40
63.0
 40
63.0
 40
63.0
 40
64.0
 40
64.0
 40
64.0
 40
65.0
 40
65.0
 40
65.0
 40
66.0
 40
66.0
 40
66.0
 40
67.0
 40
67.0
 40
67.0
 40
68.0
 40
68.0
 40
68.0
 40
69.0
 40
69.0
 40
69.0
 40
70.0
 40
70.0
 40
70.0
 40
71.0
 40
71.0
 40
71.0
 40
72.0
 40
72.0
 40
72.0
 40
73.0
 40
73.0
 40
73.0
 40
74.0
 40
74.0
 40
74.0
 40
75.0
 40
75.0
 40
75.0
 40
76.0
 40
76.0
 40
76.0
 40
77.0
 40
77.0
 40
77.0
 40
78.0
 40
78.0
 40
78.0
 40
79.0
 40
79.0
 40
79.0
 40
80.0
 40
80.0
 40
80.0
 40
81.0
 40
81.0
 40
81.0
 40
82.0
 40
82.0
 40
82.0
 40
83.0
 40
83.0
 40
83.0
 40
84.0
 40
84.0
 40
84.0
 40
85.0
 40
85.0
 40
85.0
 40
86.0
 40
86.0
 40
86.0
 40
87.0
 40
87.0
 40
87.0
 40
88.0
 40
88.0
 40
88.0
 40
89.0
 40
89.0
 40
89.0
 40
90.0
 40
90.0
 40
90.0
 40
91.0
 40
91.0
 40
91.0
 40
92.0
 40
92.0
 40
92.0
 40
93.0
 40
93.0
 40
93.0
 40
94.0
 40
94.0
 40
94.0
 40
95.0
 40
95.0
 40
95.0
 40
96.0
 40
96.0
 40
96.0
 40
97.0
 40
97.0
 40
97.0
 40
98.0
 40
98.0
 40
98.0
 40
99.0
 40
99.0
 40
99.0
 40
100.0
 40
100.0
 40
100.0
 40
101.0
 40
101.0
 40
101.0
 40
102.0
 40
102.0
 40
102.0
 40
103.0
 40
103.0
 40
103.0
 40
104.0
 40
104.0
 40
104.0
 40
105.0
 40
105.0
 40
105.0
 40
106.0
 40
106.0
 40
106.0
 40
107.0
 40
107.0
 40
107.0
 40
108.0
 40
108.0
 40
108.0
 40
109.0
 40
109.0
 40
109.0
 40
110.0
 40
110.0
 40
110.0
 40
111.0
 40
111.0
 40
111.0
 40
112.0
 40
112.0
 40
112.0
 40
113.0
 40
113.0
 40
113.0
 40
114.0
 40
114.0
 40
114.0
 40
115.0
 40
115.0
 40
115.0
 40
116.0
 40
116.0
 40
116.0
 40
117.0
 40
117.0
 40
117.0
 40
118.0
 40
118.0
 40
118.0
 40
119.0
 40
119.0
 40
119.0
 40
120.0
 40
120.0
 40
120.0
 40
121.0
 40
121.0
 40
121.0
 40
122.0
 40
122.0
 40
122.0
 40
123.0
 40
123.0
 40
123.0
 40
124.0
 40
124.0
 40
124.0
 40
125.0
 40
125.0
 40
125.0
 40
126.0
 40
126.0
 40
126.0
 40
127.0
 40
127.0
 40
127.0
 40
128.0
 40
128.0
 40
128.0
 40
129.0
 40
129.0
 40
129.0
 40
130.0
 40
130.0
 40
130.0
 40
131.0
 40
131.0
 40
131.0
 40
132.0
 40
132.0
 40
132.0
 40
133.0
 40
133.0
 40
133.0
 40
134.0
 40
134.0
 40
134.0
 40
135.0
 40
135.0
 40
135.0
 40
136.0
 40
136.0
 40
136.0
 40
137.0
 40
137.0
 40
137.0
 40
138.0
 40
138.0
 40
138.0
 40
139.0
 40
139.0
 40
139.0
 40
140.0
 40
140.0
 40
140.0
 40
141.0
 40
141.0
 40
141.0
 40
142.0
 40
142.0
 40
142.0
 40
143.0
 40
143.0
 40
143.0
 40
144.0
 40
144.0
 40
144.0
 40
145.0
 40
145.0
 40
145.0
 40
146.0
 40
146.0
 40
146.0
 40
147.0
 40
147.0
 40
147.0
 40
148.0
 40
148.0
 40
148.0
 40
149.0
 40
149.0
 40
149.0
 40
150.0
 40
150.0
 40
150.0
 40
151.0
 40
151.0
 40
151.0
 40
152.0
 40
152.0
 40
152.0
 40
153.0
 40
153.0
 40
153.0
 40
154.0
 40
154.0
 40
154.0
 40
155.0
 40
155.0
 40
155.0
 40
156.0
 40
156.0
 40
156.0
 40
157.0
 40
157.0
 40
157.0
 40
158.0
 40
158.0
 40
158.0
 40
159.0
 40
159.0
 40
159.0
 40
160.0
 40
160.0
 40
160.0
 40
161.0
 40
161.0
 40
161.0
 40
162.0
 40
162.0
 40
162.0
 40
163.0
 40
163.0
 40
163.0
 40
164.0
 40
164.0
 40
164.0
 40
165.0
 40
165.0
 40
165.0
 40
166.0
 40
166.0
 40
166.0
 40
167.0
 40
167.0
 40
167.0
 40
168.0
 40
168.0
 40
168.0
 40
169.0
 40
169.0
 40
169.0
 40
170.0
 40
170.0
 40
170.0
 40
171.0
 40
171.0
 40
171.0
 40
172.0
 40
172.0
 40
172.0
 40
173.0
 40
173.0
 40
173.0
 40
174.0
 40
174.0
 40
174.0
 40
175.0
 40
175.0
 40
175.0
 40
176.0
 40
176.0
 40
176.0
 40
177.0
 40
177.0
 40
177.0
 40
178.0
 40
178.0
 40
178.0
 40
179.0
 40
179.0
 40
179.0
 40
180.0
 40
180.0
 40
180.0
 40
181.0
 40
181.0
 40
181.0
 40
182.0
 40
182.0
 40
182.0
 40
183.0
 40
183.0
 40
183.0
 40
184.0
 40
184.0
 40
184.0
 40
185.0
 40
185.0
 40
185.0
 40
186.0
 40
186.0
 40
186.0
 40
187.0
 40
187.0
 40
187.0
 40
188.0
 40
188.0
 40
188.0
 40
189.0
 40
189.0
 40
189.0
 40
190.0
 40
190.0
 40
190.0
 40
191.0
 40
191.0
 40
191.0
 40
192.0
 40
192.0
 40
192.0
 40
193.0
 40
193.0
 40
193.0
 40
194.0
 40
194.0
 40
194.0
 40
195.0
 40
195.0
 40
195.0
 40
196.0
 40
196.0
 40
196.0
 40
197.0
 40
197.0
 40
197.0
 40
198.0
 40
198.0
 40
198.0
 40
199.0
 40
199.0
 40
199.0
 40
200.0
 40
200.0
 40
200.0
 40
201.0
 40
201.0
 40
201.0
 40
202.0
 40
202.0
 40
202.0
 40
203.0
 40
203.0
 40
203.0
 40
204.0
 40
204.0
 40
204.0
 40
205.0
 40
205.0
 40
205.0
 40
206.0
 40
206.0
 40
206.0
 40
207.0
 40
207.0
 40
207.0
 40
208.0
 40
208.0
 40
208.0
 40
209.0
 40
209.0
 40
209.0
 40
210.0
 40
210.0
 40
210.0
 40
211.0
 40
211.0
 40
211.0
 40
212.0
 40
212.0
 40
212.0
 40
213.0
 40
213.0
 40
213.0
 40
214.0
 40
214.0
 40
214.0
 40
215.0
 40
215.0
 40
215.0
 40
216.0
 40
216.0
 40
216.0
 40
217.0
 40
217.0
 40
217.0
 40
218.0
 40
218.0
 40
218.0
 40
219.0
 40
219.0
 40
219.0
 40
220.0
 40
220.0
 40
220.0
 40
221.0
 40
221.0
 40
221.0
 40
222.0
 40
222.0
 40
222.0
 40
223.0
 40
223.0
 40
223.0
 40
224.0
 40
224.0
 40
224.0
 40
225.0
 40
225.0
 40
225.0
 40
226.0
 40
226.0
 40
226.0
 40
227.0
 40
227.0
 40
227.0
 40
228.0
 40
228.0
 40
228.0
 40
229.0
 40
229.0
 40
229.0
 40
230.0
 40
230.0
 40
230.0
 40
231.0
 40
231.0
 40
231.0
 40
232.0
 40
232.0
 40
232.0
 40
233.0
 40
233.0
 40
233.0
 40
234.0
 40
234.0
 40
234.0
 40
235.0
 40
235.0
 40
235.0
 40
236.0
 40
236.0
 40
236.0
 40
237.0
 40
237.0
 40
237.0
 40
238.0
 40
238.0
 40
238.0
 40
239.0
 40
239.0
 40
239.0
 40
240.0
 40
240.0
 40
240.0
 40
241.0
 40
241.0
 40
241.0
 40
242.0
 40
242.0
 40
242.0
 40
243.0
 40
243.0
 40
243.0
 40
244.0
 40
244.0
 40
244.0
 40
245.0
 40
245.0
 40
245.0
 40
246.0
 40
246.0
 40
246.0
 40
247.0
 40
247.0
 40
247.0
 40
248.0
 40
248.0
 40
248.0
 40
249.0
 40
249.0
 40
249.0
 40
250.0
 40
250.0
 40
250.0
 40
251.0
 40
251.0
 40
251.0
 40
252.0
 40
252.0
 40
252.0
 40
253.0
 40
253.0
 40
253.0
 40
254.0
 40
254.0
 40
254.0
 40
255.0
 40
255.0
 40
255.0
 40
256.0
 40
256.0
 40
256.0
 40
257.0
 40
257.0
 40
257.0
 40
258.0
 40
258.0
 40
258.0
 40
259.0
 40
259.0
 40
259.0
 40
260.0
 40
260.0
 40
260.0
 40
261.0
 40
261.0
 40
261.0
 40
262.0
 40
262.0
 40
262.0
 40
263.0
 40
263.0
 40
263.0
 40
264.0
 40
264.0
 40
264.0
 40
265.0
 40
265.0
 40
265.0
 40
266.0
 40
266.0
 40
266.0
 40
267.0
 40
267.0
 40
267.0
 40
268.0
 40
268.0
 40
268.0
 40
269.0
 40
269.0
 40
269.0
 40
270.0
 40
270.0
 40
270.0
 40
271.0
 40
271.0
 40
271.0
 40
272.0
 40
272.0
 40
272.0
 40
273.0
 40
273.0
 40
273.0
 40
274.0
 40
274.0
 40
274.0
 40
275.0
 40
275.0
 40
275.0
 40
276.0
 40
276.0
 40
276.0
 40
277.0
 40
277.0
 40
277.0
 40
278.0
 40
278.0
 40
278.0
 40
279.0
 40
279.0
 40
279.0
 40
280.0
 40
280.0
 40
280.0
 40
281.0
 40
281.0
 40
281.0
 40
282.0
 40
282.0
 40
282.0
 40
283.0
 40
283.0
 40
283.0
 40
284.0
 40
284.0
 40
284.0
 40
285.0
 40
285.0
 40
285.0
 40
286.0
 40
286.0
 40
286.0
 40
287.0
 40
287.0
 40
287.0
 40
288.0
 40
288.0
 40
288.0
 40
289.0
 40
289.0
 40
289.0
 40
290.0
 40
290.0
 40
290.0
 40
291.0
 40
291.0
 40
291.0
 40
292.0
 40
292.0
 40
292.0
 40
293.0
 40
293.0
 40
293.0
 40
294.0
 40
294.0
 40
294.0
 40
295.0
 40
295.0
 40
295.0
 40
296.0
 40
296.0
 40
296.0
 40
297.0
 40
297.0
 40
297.0
 40
298.0
 40
298.0
 40
298.0
 40
299.0
 40
299.0
 40
299.0
 40
300.0
 40
300.0
 40
300.0
 40
301.0
 40
301.0
 40
301.0
 40
302.0
 40
302.0
 40
302.0
 40
303.0
 40
303.0
 40
303.0
 40
304.0
 40
304.0
 40
304.0
 40
304.0
 10
125.4569417004066
 20
-149.3569471197788
 30
0.0
 10
125.5027614703604
 20
-149.3085435282111
 30
0.0
 10
125.5432844060057
 20
-149.2560488857546
 30
0.0
 10
125.5781659977938
 20
-149.2003702214551
 30
0.0
 10
125.613047589582
 20
-149.1446915571556
 30
0.0
 10
125.642287837513
 20
-149.0858288710131
 30
0.0
 10
125.6655422320385
 20
-149.0246891920733
 30
0.0
 10
125.6887966265639
 20
-148.9635495131335
 30
0.0
 10
125.7060651676837
 20
-148.9001328413964
 30
0.0
 10
125.7170033458494
 20
-148.8353462059078
 30
0.0
 10
125.7279415240151
 20
-148.7705595704191
 30
0.0
 10
125.7325493392266
 20
-148.704402971179
 30
0.0
 10
125.7304822819354
 20
-148.6377834372329
 30
0.0
 10
125.7304822819354
 20
-148.6377834372329
 30
0.0
 10
125.719027339447
 20
-148.2699764304889
 30
0.0
 10
125.719027339447
 20
-148.2699764304889
 30
0.0
 10
125.719027339447
 20
-148.2699764304889
 30
0.0
 10
125.7075723969585
 20
-147.9021694237449
 30
0.0
 10
125.7075723969585
 20
-147.9021694237449
 30
0.0
 10
125.7075723969585
 20
-147.9021694237449
 30
0.0
 10
125.6961174544701
 20
-147.534362417001
 30
0.0
 10
125.6961174544701
 20
-147.534362417001
 30
0.0
 10
125.6961174544701
 20
-147.534362417001
 30
0.0
 10
125.6846625119816
 20
-147.166555410257
 30
0.0
 10
125.6846625119816
 20
-147.166555410257
 30
0.0
 10
125.6739827159773
 20
-146.8232516451518
 30
0.0
 10
125.6639273435298
 20
-146.5458676289723
 30
0.0
 10
125.6499854727379
 20
-146.3083901993238
 30
0.0
 10
125.636043601946
 20
-146.0709127696753
 30
0.0
 10
125.6182152328099
 20
-145.8733419265579
 30
0.0
 10
125.5919894434284
 20
-145.6896645075772
 30
0.0
 10
125.5657636540469
 20
-145.5059870885964
 30
0.0
 10
125.5311404444202
 20
-145.3362030937522
 30
0.0
 10
125.4836088926471
 20
-145.1542993606502
 30
0.0
 10
125.4360773408741
 20
-144.9723956275481
 30
0.0
 10
125.3756374469547
 20
-144.7783721561882
 30
0.0
 10
125.2977782889881
 20
-144.546215784176
 30
0.0
 10
125.1647976032574
 20
-144.1507188224693
 30
0.0
 10
125.0170676024806
 20
-143.7804356533453
 30
0.0
 10
124.8516653384567
 20
-143.430906493039
 30
0.0
 10
124.6862630744328
 20
-143.0813773327328
 30
0.0
 10
124.503188547162
 20
-142.7526021812444
 30
0.0
 10
124.2995188084434
 20
-142.4401212548088
 30
0.0
 10
124.0958490697247
 20
-142.1276403283733
 30
0.0
 10
123.8715841195584
 20
-141.8314536269906
 30
0.0
 10
123.6238010097435
 20
-141.547101366896
 30
0.0
 10
123.3760178999286
 20
-141.2627491068013
 30
0.0
 10
123.1047166304651
 20
-140.9902312879946
 30
0.0
 10
122.8069742531524
 20
-140.7250881267111
 30
0.0
 10
122.45428260285
 20
-140.4110676732306
 30
0.0
 10
122.0950668029723
 20
-140.1422533320706
 30
0.0
 10
121.7186362915918
 20
-139.9148877959675
 30
0.0
 10
121.3422057802113
 20
-139.6875222598644
 30
0.0
 10
120.948560557328
 20
-139.5016055288182
 30
0.0
 10
120.5270100610141
 20
-139.3533802955653
 30
0.0
 10
120.1054595647002
 20
-139.2051550623124
 30
0.0
 10
119.6560037949558
 20
-139.0946213268529
 30
0.0
 10
119.1679521898532
 20
-139.018021781923
 30
0.0
 10
118.6799005847506
 20
-138.9414222369932
 30
0.0
 10
118.1532531442898
 20
-138.898756882593
 30
0.0
 10
117.5773193065432
 20
-138.886268411459
 30
0.0
 10
117.5773193065432
 20
-138.886268411459
 30
0.0
 10
117.5135419763725
 20
-138.884897101967
 30
0.0
 10
117.4151246148197
 20
-138.882782943761
 30
0.0
 10
117.316707253267
 20
-138.880668785555
 30
0.0
 10
117.1836498603322
 20
-138.877811778635
 30
0.0
 10
117.045089734804
 20
-138.874840383779
 30
0.0
 10
116.9065296092757
 20
-138.871868988923
 30
0.0
 10
116.762466751154
 20
-138.8687832061309
 30
0.0
 10
116.6420384592276
 20
-138.8662114961808
 30
0.0
 10
116.5216101673011
 20
-138.8636397862307
 30
0.0
 10
116.4248164415698
 20
-138.8615821491225
 30
0.0
 10
116.3807945808223
 20
-138.8606670456342
 30
0.0
 10
116.3397333490075
 20
-138.7417305069677
 30
0.0
 10
116.2918572876859
 20
-138.6308024695639
 30
0.0
 10
116.2359330257591
 20
-138.5241622975859
 30
0.0
 10
116.1800087638322
 20
-138.4175221256078
 30
0.0
 10
116.1160363013
 20
-138.3151698190555
 30
0.0
 10
116.0427822670641
 20
-138.2133847420919
 30
0.0
 10
115.9695282328281
 20
-138.1115996651283
 30
0.0
 10
115.8869926268883
 20
-138.0103818177533
 30
0.0
 10
115.7939420781462
 20
-137.90601056413
 30
0.0
 10
115.700891529404
 20
-137.8016393105067
 30
0.0
 10
115.5973260378596
 20
-137.6941146506351
 30
0.0
 10
115.4820122324142
 20
-137.579715948678
 30
0.0
 10
115.4686624874089
 20
-137.5663662036727
 30
0.0
 10
115.4556787837988
 20
-137.5532533089819
 30
0.0
 10
115.4430234408522
 20
-137.5403718816441
 30
0.0
 10
115.4303680979057
 20
-137.5274904543063
 30
0.0
 10
115.4180411156225
 20
-137.5148404943214
 30
0.0
 10
115.4060048132709
 20
-137.5024166187277
 30
0.0
 10
115.3939685109193
 20
-137.489992743134
 30
0.0
 10
115.3822228884993
 20
-137.4777949519315
 30
0.0
 10
115.370730265279
 20
-137.4658178621586
 30
0.0
 10
115.3592376420586
 20
-137.4538407723857
 30
0.0
 10
115.347998018038
 20
-137.4420843840423
 30
0.0
 10
115.3369737124852
 20
-137.4305433141667
 30
0.0
 10
115.283800816855
 20
-137.3749427028118
 30
0.0
 10
115.2316775987556
 20
-137.3224722836829
 30
0.0
 10
115.1798154542983
 20
-137.2729443259909
 30
0.0
 10
115.1279533098411
 20
-137.223416368299
 30
0.0
 10
115.0763522390261
 20
-137.176830872044
 30
0.0
 10
115.0242236379649
 20
-137.1330001064367
 30
0.0
 10
114.9720950369037
 20
-137.0891693408294
 30
0.0
 10
114.9194389055963
 20
-137.0480933058699
 30
0.0
 10
114.8654666401544
 20
-137.0095842707691
 30
0.0
 10
114.8114943747124
 20
-136.9710752356683
 30
0.0
 10
114.7562059751358
 20
-136.9351332004261
 30
0.0
 10
114.6988128375362
 20
-136.9015704342534
 30
0.0
 10
114.7085075515502
 20
-136.8697571306317
 30
0.0
 10
114.7167152223957
 20
-136.8374808923043
 30
0.0
 10
114.7233490498155
 20
-136.8048497149401
 30
0.0
 10
114.7299828772352
 20
-136.7722185375758
 30
0.0
 10
114.7350428612292
 20
-136.7392324211748
 30
0.0
 10
114.73844220154
 20
-136.7059993614059
 30
0.0
 10
114.7418415418508
 20
-136.6727663016371
 30
0.0
 10
114.7435802384786
 20
-136.6392862985004
 30
0.0
 10
114.7435714911658
 20
-136.605667347665
 30
0.0
 10
114.743562743853
 20
-136.5720483968296
 30
0.0
 10
114.7418065525998
 20
-136.5382904982955
 30
0.0
 10
114.7382161171488
 20
-136.5045016477315
 30
0.0
 10
114.7382161171488
 20
-136.5045016477315
 30
0.0
 10
114.7231438244008
 20
-136.3628220959006
 30
0.0
 10
114.7231438244008
 20
-136.3628220959006
 30
0.0
 10
114.7231438244008
 20
-136.3628220959006
 30
0.0
 10
114.7080715316528
 20
-136.2211425440697
 30
0.0
 10
114.7080715316528
 20
-136.2211425440697
 30
0.0
 10
114.7080715316528
 20
-136.2211425440697
 30
0.0
 10
114.6929992389049
 20
-136.0794629922388
 30
0.0
 10
114.6929992389049
 20
-136.0794629922388
 30
0.0
 10
114.6929992389049
 20
-136.0794629922388
 30
0.0
 10
114.6779269461569
 20
-135.9377834404079
 30
0.0
 10
114.6779269461569
 20
-135.9377834404079
 30
0.0
 10
114.6401170232063
 20
-135.580871548136
 30
0.0
 10
114.598603622609
 20
-135.2625985549159
 30
0.0
 10
114.5497370963354
 20
-134.9688476437006
 30
0.0
 10
114.5008705700618
 20
-134.6750967324852
 30
0.0
 10
114.4446509181119
 20
-134.4058679032746
 30
0.0
 10
114.377428492456
 20
-134.1470443390218
 30
0.0
 10
114.3102060668001
 20
-133.8882207747691
 30
0.0
 10
114.2319808674381
 20
-133.6398024754741
 30
0.0
 10
114.1391032463404
 20
-133.3876726240899
 30
0.0
 10
114.0462256252428
 20
-133.1355427727057
 30
0.0
 10
113.9386955824094
 20
-132.8797013692324
 30
0.0
 10
113.8128634698107
 20
-132.6060315966228
 30
0.0
 10
113.4999626723629
 20
-131.9263573210766
 30
0.0
 10
113.1149517200394
 20
-131.2918999237743
 30
0.0
 10
112.6674553483522
 20
-130.7106504113531
 30
0.0
 10
112.2199589766651
 20
-130.1294008989319
 30
0.0
 10
111.7099771856142
 20
-129.601359271392
 30
0.0
 10
111.1471347107115
 20
-129.1345165353705
 30
0.0
 10
110.5842922358088
 20
-128.6676737993489
 30
0.0
 10
109.9685890770543
 20
-128.2620299548458
 30
0.0
 10
109.3096499699599
 20
-127.9255760084985
 30
0.0
 10
108.6507108628655
 20
-127.5891220621511
 30
0.0
 10
107.9485358074313
 20
-127.3218580139595
 30
0.0
 10
107.212749539169
 20
-127.1317748705608
 30
0.0
 10
106.9963975426953
 20
-127.0760504510869
 30
0.0
 10
106.8085106476685
 20
-127.0314364645529
 30
0.0
 10
106.6302161903835
 20
-126.995860470706
 30
0.0
 10
106.4519217330984
 20
-126.9602844768591
 30
0.0
 10
106.2832197135551
 20
-126.9337464756993
 30
0.0
 10
106.1052374680483
 20
-126.9141740269737
 30
0.0
 10
105.9272552225416
 20
-126.8946015782481
 30
0.0
 10
105.7399927510715
 20
-126.8819946819568
 30
0.0
 10
105.5245773899329
 20
-126.8742808978469
 30
0.0
 10
105.3091620287942
 20
-126.8665671137369
 30
0.0
 10
105.0655937779871
 20
-126.8637464418084
 30
0.0
 10
104.7749999738063
 20
-126.8637464418084
 30
0.0
 10
104.4177005082923
 20
-126.8637464418084
 30
0.0
 10
104.1037446503521
 20
-126.8714010133397
 30
0.0
 10
103.814146694085
 20
-126.8898753378793
 30
0.0
 10
103.5245487378179
 20
-126.908349662419
 30
0.0
 10
103.2593086832238
 20
-126.937643739967
 30
0.0
 10
102.9994408244021
 20
-126.9809227520004
 30
0.0
 10
102.7395729655803
 20
-127.0242017640339
 30
0.0
 10
102.4850773025309
 20
-127.0814657105528
 30
0.0
 10
102.216968129353
 20
-127.1558797730342
 30
0.0
 10
101.9488589561751
 20
-127.2302938355156
 30
0.0
 10
101.6671362728688
 20
-127.3218580139595
 30
0.0
 10
101.3528143735333
 20
-127.433737489843
 30
0.0
 10
100.6567758944322
 20
-127.6814398552324
 30
0.0
 10
99.99567283673612
 20
-128.008444012323
 30
0.0
 10
99.3808067285253
 20
-128.4032815612219
 30
0.0
 10
98.76594062031448
 20
-128.7981191101209
 30
0.0
 10
98.19731146158891
 20
-129.2607900508283
 30
0.0
 10
97.68622078042871
 20
-129.7798259834513
 30
0.0
 10
97.1751300992685
 20
-130.2988619160744
 30
0.0
 10
96.72157789567366
 20
-130.8742628406131
 30
0.0
 10
96.33686569772432
 20
-131.4945603571749
 30
0.0
 10
95.952153499775
 20
-132.1148578737367
 30
0.0
 10
95.63628130747114
 20
-132.7800519823215
 30
0.0
 10
95.40055064889292
 20
-133.4786742830366
 30
0.0
 10
95.31446632545524
 20
-133.7339558584936
 30
0.0
 10
95.24151642855507
 20
-133.9700417925437
 30
0.0
 10
95.18051401513853
 20
-134.1932516822177
 30
0.0
 10
95.11951160172197
 20
-134.4164615718918
 30
0.0
 10
95.07045667178903
 20
-134.6267954171897
 30
0.0
 10
95.0321622822858
 20
-134.8305728151422
 30
0.0
 10
94.99386789278257
 20
-135.0343502130947
 30
0.0
 10
94.96633404370905
 20
-135.2315711637019
 30
0.0
 10
94.94837379201134
 20
-135.4285552639944
 30
0.0
 10
94.93041354031362
 20
-135.625539364287
 30
0.0
 10
94.92202688599173
 20
-135.8222866142649
 30
0.0
 10
94.92202688599173
 20
-136.025116610959
 30
0.0
 10
94.92202688599173
 20
-136.025116610959
 30
0.0
 10
94.92202688599173
 20
-136.1714039780014
 30
0.0
 10
94.92202688599173
 20
-136.1714039780014
 30
0.0
 10
94.92202688599173
 20
-136.1714039780014
 30
0.0
 10
94.92202688599173
 20
-136.3176913450438
 30
0.0
 10
94.92202688599173
 20
-136.3176913450438
 30
0.0
 10
94.92202688599173
 20
-136.3176913450438
 30
0.0
 10
94.92202688599173
 20
-136.4639787120863
 30
0.0
 10
94.92202688599173
 20
-136.4639787120863
 30
0.0
 10
94.92202688599173
 20
-136.4639787120863
 30
0.0
 10
94.92202688599173
 20
-136.6102660791287
 30
0.0
 10
94.92202688599173
 20
-136.6102660791287
 30
0.0
 10
94.92202688599173
 20
-136.6329929434079
 30
0.0
 10
94.92302946260754
 20
-136.6554372021982
 30
0.0
 10
94.9248886030032
 20
-136.6776274524834
 30
0.0
 10
94.92674774339885
 20
-136.6998177027686
 30
0.0
 10
94.92946344757434
 20
-136.7217539445488
 30
0.0
 10
94.93288970269364
 20
-136.743464774808
 30
0.0
 10
94.93631595781297
 20
-136.7651756050672
 30
0.0
 10
94.94045276387611
 20
-136.7866610238054
 30
0.0
 10
94.94515410804709
 20
-136.8079496280066
 30
0.0
 10
94.94985545221807
 20
-136.8292382322078
 30
0.0
 10
94.9551213344969
 20
-136.8503300218719
 30
0.0
 10
94.96080574204757
 20
-136.8712535939831
 30
0.0
 10
94.77835025537172
 20
-136.9743749911877
 30
0.0
 10
94.59816637853145
 20
-137.1007871179092
 30
0.0
 10
94.42548231307373
 20
-137.2446181722428
 30
0.0
 10
94.252798247616
 20
-137.3884492265765
 30
0.0
 10
94.08761399354081
 20
-137.5496992085223
 30
0.0
 10
93.93515775239513
 20
-137.7224963161757
 30
0.0
 10
93.78270151124943
 20
-137.895293423829
 30
0.0
 10
93.64297328303321
 20
-138.0796376571898
 30
0.0
 10
93.52120126929346
 20
-138.2696572143535
 30
0.0
 10
93.39942925555368
 20
-138.4596767715171
 30
0.0
 10
93.29561345629035
 20
-138.6553716524835
 30
0.0
 10
93.21498207305042
 20
-138.8508700553481
 30
0.0
 10
93.21354482227767
 20
-138.8508431405396
 30
0.0
 10
93.21212102890917
 20
-138.8507274068631
 30
0.0
 10
93.21070362780766
 20
-138.8505689459282
 30
0.0
 10
93.20928622670615
 20
-138.8504104849933
 30
0.0
 10
93.20787521787167
 20
-138.8502092967999
 30
0.0
 10
93.20646353616698
 20
-138.8500114729576
 30
0.0
 10
93.20505185446228
 20
-138.8498136491153
 30
0.0
 10
93.20363949988737
 20
-138.849619189624
 30
0.0
 10
93.20221940730502
 20
-138.8494741860933
 30
0.0
 10
93.20079931472267
 20
-138.8493291825627
 30
0.0
 10
93.19937148413288
 20
-138.8492336349926
 30
0.0
 10
93.19792885039844
 20
-138.8492336349926
 30
0.0
 10
93.19465600968745
 20
-138.8492336349926
 30
0.0
 10
93.10689220220071
 20
-138.8525603053205
 30
0.0
 10
92.97708746387053
 20
-138.8575503108124
 30
0.0
 10
92.84728272554035
 20
-138.8625403163043
 30
0.0
 10
92.67543705636673
 20
-138.8691936569602
 30
0.0
 10
92.50400049228199
 20
-138.8758469976161
 30
0.0
 10
92.33256392819725
 20
-138.882500338272
 30
0.0
 10
92.16153646920138
 20
-138.8891536789279
 30
0.0
 10
92.03336815122668
 20
-138.8941436844198
 30
0.0
 10
91.905199833252
 20
-138.8991336899117
 30
0.0
 10
91.8198906562985
 20
-138.9024603602397
 30
0.0
 10
91.8198906562985
 20
-138.9024603602397
 30
0.0
 10
91.40191444655056
 20
-138.918781500101
 30
0.0
 10
91.04253715782205
 20
-138.9414975984569
 30
0.0
 10
90.72037228329593
 20
-138.9754910015653
 30
0.0
 10
90.3982074087698
 20
-139.0094844046736
 30
0.0
 10
90.11325494844608
 20
-139.0547551125345
 30
0.0
 10
89.84412839550772
 20
-139.1161854714059
 30
0.0
 10
89.57500184256936
 20
-139.1776158302772
 30
0.0
 10
89.32170119701637
 20
-139.2552058401591
 30
0.0
 10
89.06283995203171
 20
-139.3538378473094
 30
0.0
 10
88.80397870704705
 20
-139.4524698544598
 30
0.0
 10
88.53955686263075
 20
-139.5721438588787
 30
0.0
 10
88.24818791196573
 20
-139.7177422068241
 30
0.0
 10
87.87000255507243
 20
-139.90670569419
 30
0.0
 10
87.50089287159808
 20
-140.1410798464209
 30
0.0
 10
87.14780288213015
 20
-140.4133339001045
 30
0.0
 10
86.79471289266222
 20
-140.685587953788
 30
0.0
 10
86.4576425972007
 20
-140.9957219089243
 30
0.0
 10
86.14353601633304
 20
-141.3362050021009
 30
0.0
 10
85.82942943546539
 20
-141.6766880952775
 30
0.0
 10
85.5382865691916
 20
-142.0475203264944
 30
0.0
 10
85.27705143809915
 20
-142.4411709323395
 30
0.0
 10
85.01581630700669
 20
-142.8348215381845
 30
0.0
 10
84.78448891109555
 20
-143.2512905186577
 30
0.0
 10
84.5900132709532
 20
-143.6830471103466
 30
0.0
 10
84.4606068717885
 20
-143.9702388827357
 30
0.0
 10
84.35472401523403
 20
-144.2288686603675
 30
0.0
 10
84.26774342867401
 20
-144.4815744886531
 30
0.0
 10
84.18076284211399
 20
-144.7342803169387
 30
0.0
 10
84.11268452554845
 20
-144.9810621958782
 30
0.0
 10
84.05888720636159
 20
-145.2445581708829
 30
0.0
 10
84.00508988717473
 20
-145.5080541458875
 30
0.0
 10
83.96557356536657
 20
-145.7882642169573
 30
0.0
 10
83.93571696832136
 20
-146.1078264295036
 30
0.0
 10
83.90586037127615
 20
-146.4273886420498
 30
0.0
 10
83.88566349899386
 20
-146.7863029960725
 30
0.0
 10
83.87050507885877
 20
-147.2072075369829
 30
0.0
 10
83.87050507885877
 20
-147.2072075369829
 30
0.0
 10
83.85771516186978
 20
-147.5636887923191
 30
0.0
 10
83.85771516186978
 20
-147.5636887923191
 30
0.0
 10
83.85771516186978
 20
-147.5636887923191
 30
0.0
 10
83.84492524488078
 20
-147.9201700476554
 30
0.0
 10
83.84492524488078
 20
-147.9201700476554
 30
0.0
 10
83.84492524488078
 20
-147.9201700476554
 30
0.0
 10
83.83213532789179
 20
-148.2766513029916
 30
0.0
 10
83.83213532789179
 20
-148.2766513029916
 30
0.0
 10
83.83213532789179
 20
-148.2766513029916
 30
0.0
 10
83.81934541090281
 20
-148.6331325583278
 30
0.0
 10
83.81934541090281
 20
-148.6331325583278
 30
0.0
 10
83.8169769077567
 20
-148.6999674107417
 30
0.0
 10
83.82131557488343
 20
-148.7663500943731
 30
0.0
 10
83.83202497717703
 20
-148.8313708886955
 30
0.0
 10
83.84273437947064
 20
-148.8963916830179
 30
0.0
 10
83.8598145169311
 20
-148.9600505880313
 30
0.0
 10
83.88292895445245
 20
-149.021437883209
 30
0.0
 10
83.9060433919738
 20
-149.0828251783869
 30
0.0
 10
83.93519212955603
 20
-149.141940863729
 30
0.0
 10
83.97003873209316
 20
-149.1978752187091
 30
0.0
 10
84.00488533463029
 20
-149.2538095736892
 30
0.0
 10
84.04542980212233
 20
-149.306562598307
 30
0.0
 10
84.09133569946329
 20
-149.3552245720362
 30
0.0
 10
84.13719853311066
 20
-149.4038004183782
 30
0.0
 10
84.18746462942514
 20
-149.4472947488795
 30
0.0
 10
84.24124310824607
 20
-149.4853092243746
 30
0.0
 10
84.29502158706698
 20
-149.5233236998696
 30
0.0
 10
84.35231244839434
 20
-149.5558583203584
 30
0.0
 10
84.41222481206752
 20
-149.5825147466756
 30
0.0
 10
84.4721371757407
 20
-149.6091711729927
 30
0.0
 10
84.53467104175968
 20
-149.6299494051381
 30
0.0
 10
84.59893552996382
 20
-149.6444511039463
 30
0.0
 10
84.66320001816797
 20
-149.6589528027545
 30
0.0
 10
84.7291951285573
 20
-149.6671779682256
 30
0.0
 10
84.79602998097114
 20
-149.6687282611939
 30
0.0
 10
84.79602998097114
 20
-149.6687282611939
 30
0.0
 10
84.96223430628766
 20
-149.6724801854958
 30
0.0
 10
84.96223430628766
 20
-149.6724801854958
 30
0.0
 10
84.96223430628766
 20
-149.6724801854958
 30
0.0
 10
85.12843863160418
 20
-149.6762321097978
 30
0.0
 10
85.12843863160418
 20
-149.6762321097978
 30
0.0
 10
85.12843863160418
 20
-149.6762321097978
 30
0.0
 10
85.2946429569207
 20
-149.6799840340996
 30
0.0
 10
85.2946429569207
 20
-149.6799840340996
 30
0.0
 10
85.2946429569207
 20
-149.6799840340996
 30
0.0
 10
85.46084728223722
 20
-149.6837359584015
 30
0.0
 10
85.46084728223722
 20
-149.6837359584015
 30
0.0
 10
85.46084728223722
 20
-149.6837359584015
 30
0.0
 10
85.43939079691815
 20
-150.0535185120879
 30
0.0
 10
85.43939079691815
 20
-150.0535185120879
 30
0.0
 10
85.43939079691815
 20
-150.0535185120879
 30
0.0
 10
85.41793431159908
 20
-150.4233010657742
 30
0.0
 10
85.41793431159908
 20
-150.4233010657742
 30
0.0
 10
85.41793431159908
 20
-150.4233010657742
 30
0.0
 10
85.39647782628
 20
-150.7930836194605
 30
0.0
 10
85.39647782628
 20
-150.7930836194605
 30
0.0
 10
85.39647782628
 20
-150.7930836194605
 30
0.0
 10
85.37502134096094
 20
-151.1628661731468
 30
0.0
 10
85.37502134096094
 20
-151.1628661731468
 30
0.0
 10
85.37122097000378
 20
-151.2009883078757
 30
0.0
 10
85.36667640459217
 20
-151.2452739337463
 30
0.0
 10
85.36144382938885
 20
-151.2949606888083
 30
0.0
 10
85.35621125418551
 20
-151.3446474438703
 30
0.0
 10
85.35029066919046
 20
-151.3997353281237
 30
0.0
 10
85.34373825906636
 20
-151.4594619796183
 30
0.0
 10
85.33718584894227
 20
-151.519188631113
 30
0.0
 10
85.33000161368913
 20
-151.5835540498489
 30
0.0
 10
85.32224173796968
 20
-151.651795873876
 30
0.0
 10
85.31448186225022
 20
-151.7200376979031
 30
0.0
 10
85.30614634606442
 20
-151.7921559272212
 30
0.0
 10
85.29729137407499
 20
-151.8673881998804
 30
0.0
 10
85.29729137407499
 20
-151.8673881998804
 30
0.0
 10
85.28308035519834
 20
-151.986889949525
 30
0.0
 10
85.26049075644231
 20
-152.1766285833751
 30
0.0
 10
85.2379011576863
 20
-152.3663672172252
 30
0.0
 10
85.20693297905092
 20
-152.6263427352809
 30
0.0
 10
85.17341865953347
 20
-152.907290272103
 30
0.0
 10
85.13990434001603
 20
-153.1882378089252
 30
0.0
 10
85.10384387961652
 20
-153.4901573645137
 30
0.0
 10
85.07106971733222
 20
-153.7637840734297
 30
0.0
 10
85.03829555504794
 20
-154.0374107823457
 30
0.0
 10
85.00880769087888
 20
-154.282744644589
 30
0.0
 10
84.98843856382234
 20
-154.4505207947207
 30
0.0
 10
84.88543020881337
 20
-155.3008564878675
 30
0.0
 10
84.80800168778238
 20
-155.9599032541958
 30
0.0
 10
84.7497876485242
 20
-156.4718928899592
 30
0.0
 10
84.69157360926602
 20
-156.9838825257226
 30
0.0
 10
84.65257405178065
 20
-157.3488150309211
 30
0.0
 10
84.62642362386293
 20
-157.6109222018082
 30
0.0
 10
84.6002731959452
 20
-157.8730293726954
 30
0.0
 10
84.58697189759512
 20
-158.0323112092712
 30
0.0
 10
84.58015437660751
 20
-158.1329995077893
 30
0.0
 10
84.57333685561991
 20
-158.2336878063075
 30
0.0
 10
84.57300311199478
 20
-158.2757825667679
 30
0.0
 10
84.57278779352694
 20
-158.3035155854241
 30
0.0
 10
84.57278779352694
 20
-158.3035155854241
 30
0.0
 10
84.57222796551059
 20
-158.3659579410943
 30
0.0
 10
84.57222796551059
 20
-158.3659579410943
 30
0.0
 10
84.57222796551059
 20
-158.3659579410943
 30
0.0
 10
84.57166813749424
 20
-158.4284002967644
 30
0.0
 10
84.57166813749424
 20
-158.4284002967644
 30
0.0
 10
84.57166813749424
 20
-158.4284002967644
 30
0.0
 10
84.57110830947789
 20
-158.4908426524346
 30
0.0
 10
84.57110830947789
 20
-158.4908426524346
 30
0.0
 10
84.57110830947789
 20
-158.4908426524346
 30
0.0
 10
84.57054848146153
 20
-158.5532850081048
 30
0.0
 10
84.57054848146153
 20
-158.5532850081048
 30
0.0
 10
84.57054848146153
 20
-158.5532850081048
 30
0.0
 10
84.65585765841503
 20
-159.0319810257802
 30
0.0
 10
84.65585765841503
 20
-159.0319810257802
 30
0.0
 10
84.65585765841503
 20
-159.0319810257802
 30
0.0
 10
84.74116683536853
 20
-159.5106770434557
 30
0.0
 10
84.74116683536853
 20
-159.5106770434557
 30
0.0
 10
84.74116683536853
 20
-159.5106770434557
 30
0.0
 10
84.82647601232203
 20
-159.9893730611311
 30
0.0
 10
84.82647601232203
 20
-159.9893730611311
 30
0.0
 10
84.82647601232203
 20
-159.9893730611311
 30
0.0
 10
84.91178518927553
 20
-160.4680690788066
 30
0.0
 10
84.91178518927553
 20
-160.4680690788066
 30
0.0
 10
84.92263724005407
 20
-160.4883090147824
 30
0.0
 10
84.93379073668757
 20
-160.5091087787746
 30
0.0
 10
84.94519723252075
 20
-160.5304791367066
 30
0.0
 10
84.95660372835395
 20
-160.5518494946385
 30
0.0
 10
84.96826322338684
 20
-160.5737904465102
 30
0.0
 10
84.98012727096418
 20
-160.596312758245
 30
0.0
 10
84.99199131854151
 20
-160.6188350699798
 30
0.0
 10
85.00405991866327
 20
-160.6419387415778
 30
0.0
 10
85.01628462467421
 20
-160.6656345389623
 30
0.0
 10
85.02850933068515
 20
-160.6893303363468
 30
0.0
 10
85.04089014258527
 20
-160.7136182595178
 30
0.0
 10
85.0533786137193
 20
-160.7385090743987
 30
0.0
 10
85.24716523476461
 20
-161.1253071700051
 30
0.0
 10
85.49379100781492
 20
-161.5014900651476
 30
0.0
 10
85.7818117563052
 20
-161.8573253650804
 30
0.0
 10
86.06983250479549
 20
-162.2131606650131
 30
0.0
 10
86.39924822872571
 20
-162.5486483697361
 30
0.0
 10
86.75861475153084
 20
-162.8540560845035
 30
0.0
 10
87.11798127433596
 20
-163.1594637992709
 30
0.0
 10
87.50729859601597
 20
-163.4347915240827
 30
0.0
 10
87.91512254000581
 20
-163.6703068641931
 30
0.0
 10
88.32294648399565
 20
-163.9058222043035
 30
0.0
 10
88.74927705029532
 20
-164.1015251597125
 30
0.0
 10
89.18267006233975
 20
-164.2476833356742
 30
0.0
 10
89.27026161505223
 20
-164.2771389020731
 30
0.0
 10
89.37585379167514
 20
-164.3096735225619
 30
0.0
 10
89.492219966132
 20
-164.3433977775855
 30
0.0
 10
89.60858614058886
 20
-164.3771220326091
 30
0.0
 10
89.73572631287966
 20
-164.4120359221674
 30
0.0
 10
89.86641385692793
 20
-164.4462500267053
 30
0.0
 10
89.9971014009762
 20
-164.4804641312432
 30
0.0
 10
90.13133631678195
 20
-164.5139784507606
 30
0.0
 10
90.26189197826868
 20
-164.5449035657024
 30
0.0
 10
90.3924476397554
 20
-164.5758286806442
 30
0.0
 10
90.51932404692313
 20
-164.6041645910104
 30
0.0
 10
90.63529457369535
 20
-164.6280218772458
 30
0.0
 10
90.75626048892119
 20
-164.6529126921267
 30
0.0
 10
90.89144818894707
 20
-164.6767269146685
 30
0.0
 10
91.03282091196131
 20
-164.6985279095361
 30
0.0
 10
91.17419363497555
 20
-164.7203289044037
 30
0.0
 10
91.32175138097816
 20
-164.7401166715971
 30
0.0
 10
91.46745738815744
 20
-164.7569545757813
 30
0.0
 10
91.61316339533673
 20
-164.7737924799654
 30
0.0
 10
91.7570176636927
 20
-164.7876805211403
 30
0.0
 10
91.89098343141364
 20
-164.7976820639709
 30
0.0
 10
92.02494919913461
 20
-164.8076836068016
 30
0.0
 10
92.14902646622056
 20
-164.8137986512879
 30
0.0
 10
92.25517847085982
 20
-164.8150905620948
 30
0.0
 10
92.25517847085982
 20
-164.8150905620948
 30
0.0
 10
92.29683182846117
 20
-164.8156073264176
 30
0.0
 10
92.3593737689227
 20
-164.8163824729018
 30
0.0
 10
92.42191570938422
 20
-164.817157619386
 30
0.0
 10
92.50534623270592
 20
-164.8181911480316
 30
0.0
 10
92.58890056414661
 20
-164.8192246766772
 30
0.0
 10
92.67245489558732
 20
-164.8202582053227
 30
0.0
 10
92.75613303514702
 20
-164.8212917339683
 30
0.0
 10
92.81917020808454
 20
-164.8220668804525
 30
0.0
 10
92.88220738102207
 20
-164.8228420269367
 30
0.0
 10
92.92460358733743
 20
-164.8233587912594
 30
0.0
 10
92.92559405228944
 20
-164.8233587912594
 30
0.0
 10
92.93771109906646
 20
-164.8233587912594
 30
0.0
 10
92.94976489604358
 20
-164.8229106596983
 30
0.0
 10
92.96177058280051
 20
-164.8221304666875
 30
0.0
 10
92.97377626955746
 20
-164.8213502736767
 30
0.0
 10
92.98573384609425
 20
-164.8202380192164
 30
0.0
 10
92.99765845199066
 20
-164.8189097734179
 30
0.0
 10
93.00958305788707
 20
-164.8175815276195
 30
0.0
 10
93.02147469314309
 20
-164.8160372904831
 30
0.0
 10
93.0333484973385
 20
-164.8143931321202
 30
0.0
 10
93.0452223015339
 20
-164.8127489737572
 30
0.0
 10
93.05707827466868
 20
-164.8110048941678
 30
0.0
 10
93.06893155632261
 20
-164.8092769634635
 30
0.0
 10
93.05824099439495
 20
-164.8674344816239
 30
0.0
 10
93.04810622326237
 20
-164.9221576702224
 30
0.0
 10
93.03843505970582
 20
-164.9739612749712
 30
0.0
 10
93.02876389614929
 20
-165.02576487972
 30
0.0
 10
93.01955634016878
 20
-165.0746489006191
 30
0.0
 10
93.01072020854528
 20
-165.1211280833807
 30
0.0
 10
93.00188407692178
 20
-165.1676072661422
 30
0.0
 10
92.9934193696553
 20
-165.2116816107662
 30
0.0
 10
92.98523390352676
 20
-165.2538658629648
 30
0.0
 10
92.97704843739824
 20
-165.2960501151634
 30
0.0
 10
92.96914221240768
 20
-165.3363442749366
 30
0.0
 10
92.96142304533603
 20
-165.3752630879965
 30
0.0
 10
92.96142304533603
 20
-165.3752630879965
 30
0.0
 10
92.94124770490055
 20
-165.4772325313982
 30
0.0
 10
92.94124770490055
 20
-165.4772325313982
 30
0.0
 10
92.94124770490055
 20
-165.4772325313982
 30
0.0
 10
92.92107236446505
 20
-165.5792019747999
 30
0.0
 10
92.92107236446505
 20
-165.5792019747999
 30
0.0
 10
92.92107236446505
 20
-165.5792019747999
 30
0.0
 10
92.90089702402956
 20
-165.6811714182016
 30
0.0
 10
92.90089702402956
 20
-165.6811714182016
 30
0.0
 10
92.90089702402956
 20
-165.6811714182016
 30
0.0
 10
92.88072168359406
 20
-165.7831408616033
 30
0.0
 10
92.88072168359406
 20
-165.7831408616033
 30
0.0
 10
92.88072168359406
 20
-165.7831408616033
 30
0.0
 10
92.46944187819558
 20
-166.0919129274305
 30
0.0
 10
92.46944187819558
 20
-166.0919129274305
 30
0.0
 10
92.46944187819558
 20
-166.0919129274305
 30
0.0
 10
92.05816207279709
 20
-166.4006849932577
 30
0.0
 10
92.05816207279709
 20
-166.4006849932577
 30
0.0
 10
92.05816207279709
 20
-166.4006849932577
 30
0.0
 10
91.64688226739861
 20
-166.7094570590849
 30
0.0
 10
91.64688226739861
 20
-166.7094570590849
 30
0.0
 10
91.64688226739861
 20
-166.7094570590849
 30
0.0
 10
91.23560246200013
 20
-167.0182291249121
 30
0.0
 10
91.23560246200013
 20
-167.0182291249121
 30
0.0
 10
91.17268640570076
 20
-167.0654269330601
 30
0.0
 10
91.116251435283
 20
-167.1193426774042
 30
0.0
 10
91.06698926132478
 20
-167.1785821708654
 30
0.0
 10
91.01772708736655
 20
-167.2378216643266
 30
0.0
 10
90.97563770986785
 20
-167.3023849069049
 30
0.0
 10
90.94141283940658
 20
-167.370877711521
 30
0.0
 10
90.9071879689453
 20
-167.4393705161371
 30
0.0
 10
90.88082760552145
 20
-167.5117928827911
 30
0.0
 10
90.8630234597129
 20
-167.5867506244038
 30
0.0
 10
90.84521931390437
 20
-167.6617083660164
 30
0.0
 10
90.83597138571115
 20
-167.7392014825878
 30
0.0
 10
90.83597138571115
 20
-167.8178357870386
 30
0.0
 10
90.83597138571115
 20
-167.8178357870386
 30
0.0
 10
90.83597138571115
 20
-168.1571776923357
 30
0.0
 10
90.83597138571115
 20
-168.1571776923357
 30
0.0
 10
90.83597138571115
 20
-168.1571776923357
 30
0.0
 10
90.83597138571115
 20
-168.4965195976328
 30
0.0
 10
90.83597138571115
 20
-168.4965195976328
 30
0.0
 10
90.83597138571115
 20
-168.4965195976328
 30
0.0
 10
90.83597138571115
 20
-168.8358615029299
 30
0.0
 10
90.83597138571115
 20
-168.8358615029299
 30
0.0
 10
90.83597138571115
 20
-168.8358615029299
 30
0.0
 10
90.83597138571115
 20
-169.175203408227
 30
0.0
 10
90.83597138571115
 20
-169.175203408227
 30
0.0
 10
90.83597138571115
 20
-169.3132656097984
 30
0.0
 10
90.86395202060541
 20
-169.4448036617946
 30
0.0
 10
90.91455186054502
 20
-169.564450751405
 30
0.0
 10
90.96515170048463
 20
-169.6840978410154
 30
0.0
 10
91.03837074546958
 20
-169.79185396824
 30
0.0
 10
91.12884756565096
 20
-169.8823523202681
 30
0.0
 10
91.21932438583232
 20
-169.9728506722963
 30
0.0
 10
91.32705898121013
 20
-170.046091249128
 30
0.0
 10
91.44668992193543
 20
-170.0967072379527
 30
0.0
 10
91.56632086266072
 20
-170.1473232267774
 30
0.0
 10
91.69784814873353
 20
-170.1753146275951
 30
0.0
 10
91.83591035030491
 20
-170.1753146275951
 30
0.0
 10
91.83591035030491
 20
-170.1753146275951
 30
0.0
 10
93.75176024742252
 20
-170.1753146275951
 30
0.0
 10
93.75176024742252
 20
-170.1753146275951
 30
0.0
 10
93.75176024742252
 20
-170.1753146275951
 30
0.0
 10
95.66761014454013
 20
-170.1753146275951
 30
0.0
 10
95.66761014454013
 20
-170.1753146275951
 30
0.0
 10
95.66761014454013
 20
-170.1753146275951
 30
0.0
 10
97.58346004165774
 20
-170.1753146275951
 30
0.0
 10
97.58346004165774
 20
-170.1753146275951
 30
0.0
 10
97.58346004165774
 20
-170.1753146275951
 30
0.0
 10
99.49930993877535
 20
-170.1753146275951
 30
0.0
 10
99.49930993877535
 20
-170.1753146275951
 30
0.0
 10
99.49930993877535
 20
-170.1753146275951
 30
0.0
 10
100.489096637611
 20
-170.1753146275951
 30
0.0
 10
100.489096637611
 20
-170.1753146275951
 30
0.0
 10
100.489096637611
 20
-170.1753146275951
 30
0.0
 10
101.4788833364467
 20
-170.1753146275951
 30
0.0
 10
101.4788833364467
 20
-170.1753146275951
 30
0.0
 10
101.4788833364467
 20
-170.1753146275951
 30
0.0
 10
102.4686700352824
 20
-170.1753146275951
 30
0.0
 10
102.4686700352824
 20
-170.1753146275951
 30
0.0
 10
102.4686700352824
 20
-170.1753146275951
 30
0.0
 10
103.458456734118
 20
-170.1753146275951
 30
0.0
 10
103.458456734118
 20
-170.1753146275951
 30
0.0
 10
103.458456734118
 20
-170.1753146275951
 30
0.0
 10
104.1167714176557
 20
-170.1753146275951
 30
0.0
 10
104.1167714176557
 20
-170.1753146275951
 30
0.0
 10
104.1167714176557
 20
-170.1753146275951
 30
0.0
 10
104.7750861011934
 20
-170.1753146275951
 30
0.0
 10
104.7750861011934
 20
-170.1753146275951
 30
0.0
 10
104.7750861011934
 20
-170.1753146275951
 30
0.0
 10
105.4334007847311
 20
-170.1753146275951
 30
0.0
 10
105.4334007847311
 20
-170.1753146275951
 30
0.0
 10
105.4334007847311
 20
-170.1753146275951
 30
0.0
 10
106.0917154682687
 20
-170.1753146275951
 30
0.0
 10
106.0917154682687
 20
-170.1753146275951
 30
0.0
 10
106.0917154682687
 20
-170.1753146275951
 30
0.0
 10
107.5414600951171
 20
-170.1753146275951
 30
0.0
 10
107.5414600951171
 20
-170.1753146275951
 30
0.0
 10
107.5414600951171
 20
-170.1753146275951
 30
0.0
 10
108.9912047219655
 20
-170.1753146275951
 30
0.0
 10
108.9912047219655
 20
-170.1753146275951
 30
0.0
 10
108.9912047219655
 20
-170.1753146275951
 30
0.0
 10
110.4409493488139
 20
-170.1753146275951
 30
0.0
 10
110.4409493488139
 20
-170.1753146275951
 30
0.0
 10
110.4409493488139
 20
-170.1753146275951
 30
0.0
 10
111.8906939756623
 20
-170.1753146275951
 30
0.0
 10
111.8906939756623
 20
-170.1753146275951
 30
0.0
 10
111.8906939756623
 20
-170.1753146275951
 30
0.0
 10
113.3466290084608
 20
-170.1753146275951
 30
0.0
 10
113.3466290084608
 20
-170.1753146275951
 30
0.0
 10
113.3466290084608
 20
-170.1753146275951
 30
0.0
 10
114.8025640412592
 20
-170.1753146275951
 30
0.0
 10
114.8025640412592
 20
-170.1753146275951
 30
0.0
 10
114.8025640412592
 20
-170.1753146275951
 30
0.0
 10
116.2584990740577
 20
-170.1753146275951
 30
0.0
 10
116.2584990740577
 20
-170.1753146275951
 30
0.0
 10
116.2584990740577
 20
-170.1753146275951
 30
0.0
 10
117.7144341068561
 20
-170.1753146275951
 30
0.0
 10
117.7144341068561
 20
-170.1753146275951
 30
0.0
 10
117.8524963084275
 20
-170.1753146275951
 30
0.0
 10
117.9840343604237
 20
-170.1473232267774
 30
0.0
 10
118.1036814500341
 20
-170.0967072379527
 30
0.0
 10
118.2233285396445
 20
-170.046091249128
 30
0.0
 10
118.3310846668691
 20
-169.9728506722963
 30
0.0
 10
118.4215830188972
 20
-169.8823523202681
 30
0.0
 10
118.5120813709254
 20
-169.79185396824
 30
0.0
 10
118.5853219477571
 20
-169.6840978410154
 30
0.0
 10
118.6359379365818
 20
-169.564450751405
 30
0.0
 10
118.6865539254065
 20
-169.4448036617946
 30
0.0
 10
118.7145453262241
 20
-169.3132656097984
 30
0.0
 10
118.7145453262241
 20
-169.175203408227
 30
0.0
 10
118.7145453262241
 20
-169.175203408227
 30
0.0
 10
118.7145453262241
 20
-168.8388759614795
 30
0.0
 10
118.7145453262241
 20
-168.8388759614795
 30
0.0
 10
118.7145453262241
 20
-168.8388759614795
 30
0.0
 10
118.7145453262241
 20
-168.502548514732
 30
0.0
 10
118.7145453262241
 20
-168.502548514732
 30
0.0
 10
118.7145453262241
 20
-168.502548514732
 30
0.0
 10
118.7145453262241
 20
-168.1662210679845
 30
0.0
 10
118.7145453262241
 20
-168.1662210679845
 30
0.0
 10
118.7145453262241
 20
-168.1662210679845
 30
0.0
 10
118.7145453262241
 20
-167.829893621237
 30
0.0
 10
118.7145453262241
 20
-167.829893621237
 30
0.0
 10
118.7145453262241
 20
-167.7523789728189
 30
0.0
 10
118.7055450142689
 20
-167.6759624485867
 30
0.0
 10
118.6882118776088
 20
-167.6019844060026
 30
0.0
 10
118.6708787409486
 20
-167.5280063634186
 30
0.0
 10
118.6452127795835
 20
-167.4564668024827
 30
0.0
 10
118.6118814807637
 20
-167.3887060806572
 30
0.0
 10
118.5785501819439
 20
-167.3209453588317
 30
0.0
 10
118.5375535456694
 20
-167.2569634761165
 30
0.0
 10
118.4895590591906
 20
-167.198100789974
 30
0.0
 10
118.4415645727117
 20
-167.1392381038315
 30
0.0
 10
118.3865722360284
 20
-167.0854946142616
 30
0.0
 10
118.3252495363909
 20
-167.0382106787266
 30
0.0
 10
118.3252495363909
 20
-167.0382106787266
 30
0.0
 10
118.2128532961846
 20
-166.9514803998854
 30
0.0
 10
118.2128532961846
 20
-166.9514803998854
 30
0.0
 10
118.2128532961846
 20
-166.9514803998854
 30
0.0
 10
118.1004570559784
 20
-166.8647501210442
 30
0.0
 10
118.1004570559784
 20
-166.8647501210442
 30
0.0
 10
118.1004570559784
 20
-166.8647501210442
 30
0.0
 10
117.9880608157721
 20
-166.7780198422031
 30
0.0
 10
117.9880608157721
 20
-166.7780198422031
 30
0.0
 10
117.9880608157721
 20
-166.7780198422031
 30
0.0
 10
117.8756645755658
 20
-166.6912895633619
 30
0.0
 10
117.8756645755658
 20
-166.6912895633619
 30
0.0
 10
117.8124470734115
 20
-166.6423692074713
 30
0.0
 10
117.7406598962376
 20
-166.5872261478606
 30
0.0
 10
117.6650561992214
 20
-166.5294562029423
 30
0.0
 10
117.5894525022053
 20
-166.471686258024
 30
0.0
 10
117.5100322853469
 20
-166.4112894277982
 30
0.0
 10
117.4315487038235
 20
-166.3518615306777
 30
0.0
 10
117.3530651223002
 20
-166.2924336335571
 30
0.0
 10
117.2755181761119
 20
-166.2339746695418
 30
0.0
 10
117.203661020436
 20
-166.1800804570444
 30
0.0
 10
117.13180386476
 20
-166.126186244547
 30
0.0
 10
117.0656364995964
 20
-166.0768567835676
 30
0.0
 10
117.0099120801225
 20
-166.0356878925189
 30
0.0
 10
117.0099120801225
 20
-166.0356878925189
 30
0.0
 10
116.9143375952153
 20
-165.9649180951054
 30
0.0
 10
116.9143375952153
 20
-165.9649180951054
 30
0.0
 10
116.9143375952153
 20
-165.9649180951054
 30
0.0
 10
116.8187631103081
 20
-165.8941482976921
 30
0.0
 10
116.8187631103081
 20
-165.8941482976921
 30
0.0
 10
116.8187631103081
 20
-165.8941482976921
 30
0.0
 10
116.7231886254009
 20
-165.8233785002786
 30
0.0
 10
116.7231886254009
 20
-165.8233785002786
 30
0.0
 10
116.7231886254009
 20
-165.8233785002786
 30
0.0
 10
116.6276141404937
 20
-165.7526087028652
 30
0.0
 10
116.6276141404937
 20
-165.7526087028652
 30
0.0
 10
116.6276141404937
 20
-165.7526087028652
 30
0.0
 10
116.6172519392295
 20
-165.6740336109931
 30
0.0
 10
116.6172519392295
 20
-165.6740336109931
 30
0.0
 10
116.6172519392295
 20
-165.6740336109931
 30
0.0
 10
116.6068897379652
 20
-165.5954585191209
 30
0.0
 10
116.6068897379652
 20
-165.5954585191209
 30
0.0
 10
116.6068897379652
 20
-165.5954585191209
 30
0.0
 10
116.596527536701
 20
-165.5168834272487
 30
0.0
 10
116.596527536701
 20
-165.5168834272487
 30
0.0
 10
116.596527536701
 20
-165.5168834272487
 30
0.0
 10
116.5861653354368
 20
-165.4383083353765
 30
0.0
 10
116.5861653354368
 20
-165.4383083353765
 30
0.0
 10
116.5782147010122
 20
-165.378137589542
 30
0.0
 10
116.5704659276513
 20
-165.3203205437088
 30
0.0
 10
116.5628762880954
 20
-165.2645651722052
 30
0.0
 10
116.5552866485396
 20
-165.2088098007015
 30
0.0
 10
116.5478561427889
 20
-165.1551161035273
 30
0.0
 10
116.5405420435849
 20
-165.1031920550106
 30
0.0
 10
116.5332279443808
 20
-165.0512680064938
 30
0.0
 10
116.5260302517235
 20
-165.0011136066345
 30
0.0
 10
116.5189062383543
 20
-164.9524368297607
 30
0.0
 10
116.5117822249852
 20
-164.9037600528869
 30
0.0
 10
116.5047318909042
 20
-164.8565608989985
 30
0.0
 10
116.497712508853
 20
-164.8105473424237
 30
0.0
 10
116.5082254330447
 20
-164.8118930828476
 30
0.0
 10
116.518702022245
 20
-164.8133666686118
 30
0.0
 10
116.5291833215367
 20
-164.8148200682696
 30
0.0
 10
116.5396646208285
 20
-164.8162734679275
 30
0.0
 10
116.5501506302117
 20
-164.817706681479
 30
0.0
 10
116.5606823947693
 20
-164.8189716774774
 30
0.0
 10
116.571214159327
 20
-164.8202366734759
 30
0.0
 10
116.581791679059
 20
-164.8213334519214
 30
0.0
 10
116.5924559990484
 20
-164.8221139813673
 30
0.0
 10
116.6031203190378
 20
-164.8228945108132
 30
0.0
 10
116.6138714392846
 20
-164.8233587912594
 30
0.0
 10
116.6247504048716
 20
-164.8233587912594
 30
0.0
 10
116.6247504048716
 20
-164.8233587912594
 30
0.0
 10
116.7711669629947
 20
-164.8233587912594
 30
0.0
 10
116.7711669629947
 20
-164.8233587912594
 30
0.0
 10
116.7711669629947
 20
-164.8233587912594
 30
0.0
 10
116.9175835211178
 20
-164.8233587912594
 30
0.0
 10
116.9175835211178
 20
-164.8233587912594
 30
0.0
 10
116.9175835211178
 20
-164.8233587912594
 30
0.0
 10
117.064000079241
 20
-164.8233587912594
 30
0.0
 10
117.064000079241
 20
-164.8233587912594
 30
0.0
 10
117.064000079241
 20
-164.8233587912594
 30
0.0
 10
117.2104166373641
 20
-164.8233587912594
 30
0.0
 10
117.2104166373641
 20
-164.8233587912594
 30
0.0
 10
117.3214348393762
 20
-164.8233587912594
 30
0.0
 10
117.4534035283081
 20
-164.8168346416843
 30
0.0
 10
117.5968325426901
 20
-164.8055142732382
 30
0.0
 10
117.7402615570721
 20
-164.7941939047921
 30
0.0
 10
117.8951508969043
 20
-164.7780773174752
 30
0.0
 10
118.052010400717
 20
-164.7588924419917
 30
0.0
 10
118.2088699045298
 20
-164.7397075665082
 30
0.0
 10
118.3676995723232
 20
-164.7174544028582
 30
0.0
 10
118.5190092426277
 20
-164.6938608817459
 30
0.0
 10
118.6703189129322
 20
-164.6702673606337
 30
0.0
 10
118.8141085857479
 20
-164.6453334820592
 30
0.0
 10
118.9408880996051
 20
-164.6207871767268
 30
0.0
 10
119.5943365857698
 20
-164.4948689367409
 30
0.0
 10
120.2093937891208
 20
-164.3121281530952
 30
0.0
 10
120.7802999406437
 20
-164.0766343448315
 30
0.0
 10
121.3512060921665
 20
-163.8411405365679
 30
0.0
 10
121.8779611918612
 20
-163.5528937036864
 30
0.0
 10
122.3548054707134
 20
-163.215963365229
 30
0.0
 10
122.8316497495655
 20
-162.8790330267716
 30
0.0
 10
123.2585832075751
 20
-162.4934191827382
 30
0.0
 10
123.6298460757277
 20
-162.0631913521708
 30
0.0
 10
124.0011089438804
 20
-161.6329635216035
 30
0.0
 10
124.316701222176
 20
-161.1581217045022
 30
0.0
 10
124.5708631416003
 20
-160.6427354199088
 30
0.0
 10
124.5817151923789
 20
-160.6206868088032
 30
0.0
 10
124.5925026476171
 20
-160.5992195575607
 30
0.0
 10
124.603171677698
 20
-160.5783175172963
 30
0.0
 10
124.6138407077788
 20
-160.5574154770319
 30
0.0
 10
124.6243913127024
 20
-160.5370786477455
 30
0.0
 10
124.6347696628517
 20
-160.5172908805521
 30
0.0
 10
124.645148013001
 20
-160.4975031133587
 30
0.0
 10
124.6553541083761
 20
-160.4782644082583
 30
0.0
 10
124.6653341193599
 20
-160.4595586163657
 30
0.0
 10
124.6753141303438
 20
-160.4408528244731
 30
0.0
 10
124.6850680569364
 20
-160.4226799457884
 30
0.0
 10
124.6945420695208
 20
-160.4050238314265
 30
0.0
 10
124.6945420695208
 20
-160.4050238314265
 30
0.0
 10
124.7656832912912
 20
-159.8116922614794
 30
0.0
 10
124.7656832912912
 20
-159.8116922614794
 30
0.0
 10
124.7656832912912
 20
-159.8116922614794
 30
0.0
 10
124.8368245130616
 20
-159.2183606915322
 30
0.0
 10
124.8368245130616
 20
-159.2183606915322
 30
0.0
 10
124.8368245130616
 20
-159.2183606915322
 30
0.0
 10
124.907965734832
 20
-158.6250291215851
 30
0.0
 10
124.907965734832
 20
-158.6250291215851
 30
0.0
 10
124.907965734832
 20
-158.6250291215851
 30
0.0
 10
124.9791069566025
 20
-158.0316975516379
 30
0.0
 10
124.9791069566025
 20
-158.0316975516379
 30
0.0
 10
124.9763508802143
 20
-158.010768596565
 30
0.0
 10
124.9717430650027
 20
-157.9694705144356
 30
0.0
 10
124.9656872330951
 20
-157.9120935257211
 30
0.0
 10
124.9596314011874
 20
-157.8547165370066
 30
0.0
 10
124.9521275525836
 20
-157.781260641707
 30
0.0
 10
124.9435794094108
 20
-157.6960160602939
 30
0.0
 10
124.935031266238
 20
-157.6107714788807
 30
0.0
 10
124.9254388284963
 20
-157.513738211354
 30
0.0
 10
124.9152058183128
 20
-157.4092064781851
 30
0.0
 10
124.9049728081292
 20
-157.3046747450163
 30
0.0
 10
124.8940992255039
 20
-157.1926445462053
 30
0.0
 10
124.882988792564
 20
-157.0774061022237
 30
0.0
 10
124.8713615953013
 20
-156.9578612888855
 30
0.0
 10
124.8574304904328
 20
-156.8241054566707
 30
0.0
 10
124.8421644110638
 20
-156.6852196619599
 30
0.0
 10
124.8268983316947
 20
-156.546333867249
 30
0.0
 10
124.8102972778252
 20
-156.4023181100422
 30
0.0
 10
124.7933301825604
 20
-156.26225344672
 30
0.0
 10
124.7763630872955
 20
-156.1221887833978
 30
0.0
 10
124.7590299506353
 20
-155.9860752139603
 30
0.0
 10
124.7422997056851
 20
-155.8629937947881
 30
0.0
 10
124.7255694607348
 20
-155.7399123756158
 30
0.0
 10
124.7094421074945
 20
-155.6298631067089
 30
0.0
 10
124.6948865790693
 20
-155.5419270444478
 30
0.0
 10
124.6837761461294
 20
-155.4742309181627
 30
0.0
 10
124.6718690348585
 20
-155.3945846169131
 30
0.0
 10
124.659902711009
 20
-155.3089093985643
 30
0.0
 10
124.6479363871594
 20
-155.2232341802155
 30
0.0
 10
124.6359108507312
 20
-155.1315300447675
 30
0.0
 10
124.6245635674767
 20
-155.0397182500856
 30
0.0
 10
124.6132162842221
 20
-154.9479064554037
 30
0.0
 10
124.6025472541413
 20
-154.8559870014878
 30
0.0
 10
124.5932939429863
 20
-154.7698811462034
 30
0.0
 10
124.5840406318314
 20
-154.6837752909189
 30
0.0
 10
124.5762030396025
 20
-154.6034830342658
 30
0.0
 10
124.5705186320518
 20
-154.5349256341093
 30
0.0
 10
124.5642313327912
 20
-154.4574109856912
 30
0.0
 10
124.5555109348442
 20
-154.3612928216527
 30
0.0
 10
124.5451379676566
 20
-154.2539027358235
 30
0.0
 10
124.534765000469
 20
-154.1465126499942
 30
0.0
 10
124.5227394640408
 20
-154.0278506423741
 30
0.0
 10
124.5098418878179
 20
-153.9052483067928
 30
0.0
 10
124.496944311595
 20
-153.7826459712115
 30
0.0
 10
124.4831746955773
 20
-153.6561033076689
 30
0.0
 10
124.4693135692109
 20
-153.5329519099946
 30
0.0
 10
124.4554524428445
 20
-153.4098005123203
 30
0.0
 10
124.4414998061292
 20
-153.2900403805143
 30
0.0
 10
124.428236188511
 20
-153.1810031084061
 30
0.0
 10
124.4154893352156
 20
-153.075927696106
 30
0.0
 10
124.4020534628231
 20
-152.9600432967209
 30
0.0
 10
124.3886768030093
 20
-152.8404984833828
 30
0.0
 10
124.3753001431955
 20
-152.7209536700446
 30
0.0
 10
124.3619826959603
 20
-152.5977484427534
 30
0.0
 10
124.3494726929795
 20
-152.4780313746409
 30
0.0
 10
124.3369626899987
 20
-152.3583143065285
 30
0.0
 10
124.3252601312722
 20
-152.2420853975949
 30
0.0
 10
124.3151132484758
 20
-152.136493220972
 30
0.0
 10
124.3049663656794
 20
-152.0309010443491
 30
0.0
 10
124.2963751588131
 20
-151.9359456000369
 30
0.0
 10
124.2900878595525
 20
-151.8587754611673
 30
0.0
 10
124.2854692784176
 20
-151.8024750647919
 30
0.0
 10
124.2806273043723
 20
-151.7453281976899
 30
0.0
 10
124.2753166762244
 20
-151.6876682670513
 30
0.0
 10
124.2700060480765
 20
-151.6300083364126
 30
0.0
 10
124.2642267658259
 20
-151.5718353422374
 30
0.0
 10
124.2577335682805
 20
-151.5134826917156
 30
0.0
 10
124.251240370735
 20
-151.4551300411937
 30
0.0
 10
124.2440332578947
 20
-151.3965977343253
 30
0.0
 10
124.2358669685672
 20
-151.3382191783003
 30
0.0
 10
124.2277006792397
 20
-151.2798406222753
 30
0.0
 10
124.2185752134251
 20
-151.2216158170937
 30
0.0
 10
124.208245309931
 20
-151.1638781699456
 30
0.0
 10
124.208245309931
 20
-151.1638781699456
 30
0.0
 10
124.2088751164494
 20
-151.1638781699456
 30
0.0
 10
124.2088751164494
 20
-151.1638781699456
 30
0.0
 10
124.2088751164494
 20
-151.1638781699456
 30
0.0
 10
124.2095049229678
 20
-151.1638781699456
 30
0.0
 10
124.2095049229678
 20
-151.1638781699456
 30
0.0
 10
124.2095049229678
 20
-151.1638781699456
 30
0.0
 10
124.2101347294862
 20
-151.1638781699456
 30
0.0
 10
124.2101347294862
 20
-151.1638781699456
 30
0.0
 10
124.2101347294862
 20
-151.1638781699456
 30
0.0
 10
124.2107645360046
 20
-151.1638781699456
 30
0.0
 10
124.2107645360046
 20
-151.1638781699456
 30
0.0
 10
124.2107645360046
 20
-151.1638781699456
 30
0.0
 10
124.1869933771564
 20
-150.7936918941321
 30
0.0
 10
124.1869933771564
 20
-150.7936918941321
 30
0.0
 10
124.1869933771564
 20
-150.7936918941321
 30
0.0
 10
124.1632222183082
 20
-150.4235056183186
 30
0.0
 10
124.1632222183082
 20
-150.4235056183186
 30
0.0
 10
124.1632222183082
 20
-150.4235056183186
 30
0.0
 10
124.1394510594599
 20
-150.0533193425051
 30
0.0
 10
124.1394510594599
 20
-150.0533193425051
 30
0.0
 10
124.1394510594599
 20
-150.0533193425051
 30
0.0
 10
124.1156799006117
 20
-149.6831330666916
 30
0.0
 10
124.1156799006117
 20
-149.6831330666916
 30
0.0
 10
124.1156799006117
 20
-149.6831330666916
 30
0.0
 10
124.2752093534256
 20
-149.6795318653172
 30
0.0
 10
124.2752093534256
 20
-149.6795318653172
 30
0.0
 10
124.2752093534256
 20
-149.6795318653172
 30
0.0
 10
124.4347388062394
 20
-149.6759306639428
 30
0.0
 10
124.4347388062394
 20
-149.6759306639428
 30
0.0
 10
124.4347388062394
 20
-149.6759306639428
 30
0.0
 10
124.5942682590533
 20
-149.6723294625684
 30
0.0
 10
124.5942682590533
 20
-149.6723294625684
 30
0.0
 10
124.5942682590533
 20
-149.6723294625684
 30
0.0
 10
124.7537977118671
 20
-149.6687282611939
 30
0.0
 10
124.7537977118671
 20
-149.6687282611939
 30
0.0
 10
124.8204603095067
 20
-149.6671779682256
 30
0.0
 10
124.8862831651218
 20
-149.6589958664481
 30
0.0
 10
124.9503834729942
 20
-149.6445749120653
 30
0.0
 10
125.0144837808666
 20
-149.6301539576825
 30
0.0
 10
125.0768615409964
 20
-149.6094941506944
 30
0.0
 10
125.1366339476655
 20
-149.5829884473048
 30
0.0
 10
125.1964063543346
 20
-149.5564827439151
 30
0.0
 10
125.2535734075429
 20
-149.524131144124
 30
0.0
 10
125.3072523015725
 20
-149.486326604135
 30
0.0
 10
125.360931195602
 20
-149.4485220641461
 30
0.0
 10
125.4111219304528
 20
-149.4052645839595
 30
0.0
 10
125.4569417004066
 20
-149.3569471197788
 30
0.0
  0
ENDSEC
  0
SECTION
  2
OBJECTS
  0
DICTIONARY
  5
C
330
0
100
AcDbDictionary
  3
ACAD_GROUP
350
D
  3
ACAD_LAYOUT
350
1A
  3
ACAD_MATERIAL
350
3B
  3
ACAD_MLEADERSTYLE
350
44
  3
ACAD_MLINESTYLE
350
17
  3
ACAD_PLOTSETTINGS
350
19
  3
ACAD_VISUALSTYLE
350
2A
  3
ACDBVARIABLEDICTIONARY
350
42
1001
ACAD
1000
TREAT_AS_HARD
1070
     0
  0
DICTIONARY
  5
D
102
{ACAD_REACTORS
330
C
102
}
330
C
100
AcDbDictionary
1001
ACAD
1000
TREAT_AS_HARD
1070
     0
  0
DICTIONARY
  5
1A
102
{ACAD_REACTORS
330
C
102
}
330
C
100
AcDbDictionary
1001
ACAD
1000
TREAT_AS_HARD
1070
     0
  0
DICTIONARY
  5
3B
102
{ACAD_REACTORS
330
C
102
}
330
C
100
AcDbDictionary
  3
BYBLOCK
350
3D
  3
BYLAYER
350
3C
  3
GLOBAL
350
3E
1001
ACAD
1000
TREAT_AS_HARD
1070
     0
  0
DICTIONARY
  5
44
102
{ACAD_REACTORS
330
C
102
}
330
C
100
AcDbDictionary
1001
ACAD
1000
TREAT_AS_HARD
1070
     0
  0
DICTIONARY
  5
17
102
{ACAD_REACTORS
330
C
102
}
330
C
100
AcDbDictionary
  3
STANDARD
350
18
1001
ACAD
1000
TREAT_AS_HARD
1070
     0
  0
DICTIONARY
  5
19
102
{ACAD_REACTORS
330
C
102
}
330
C
100
AcDbDictionary
1001
ACAD
1000
TREAT_AS_HARD
1070
     0
  0
DICTIONARY
  5
2A
102
{ACAD_REACTORS
330
C
102
}
330
C
100
AcDbDictionary
  3
2DWIREFRAME
350
2F
  3
3DWIREFRAME
350
30
  3
3D_HIDDEN
350
31
  3
BASIC
350
32
  3
BRIGHTEN
350
36
  3
COLORCHANGE
350
3A
  3
CONCEPTUAL
350
34
  3
DIM
350
35
  3
FACEPATTERN
350
39
  3
FLAT
350
2B
  3
FLATWITHEDGES
350
2C
  3
GOURAUD
350
2D
  3
GOURAUDWITHEDGES
350
2E
  3
LINEPATTERN
350
38
  3
REALISTIC
350
33
  3
THICKEN
350
37
1001
ACAD
1000
TREAT_AS_HARD
1070
     0
  0
DICTIONARY
  5
42
102
{ACAD_REACTORS
330
C
102
}
330
C
100
AcDbDictionary
  3
DIMASSOC
350
45
  3
HIDETEXT
350
46
1001
ACAD
1000
TREAT_AS_HARD
1070
     0
  0
MATERIAL
  5
3D
102
{ACAD_REACTORS
330
3B
102
}
102
{ACAD_XDICTIONARY
360
49
102
}
330
3B
100
AcDbMaterial
  1
ByBlock
  0
MATERIAL
  5
3C
102
{ACAD_REACTORS
330
3B
102
}
102
{ACAD_XDICTIONARY
360
47
102
}
330
3B
100
AcDbMaterial
  1
ByLayer
  0
MATERIAL
  5
3E
102
{ACAD_REACTORS
330
3B
102
}
102
{ACAD_XDICTIONARY
360
4B
102
}
330
3B
100
AcDbMaterial
  1
Global
  0
MLINESTYLE
  5
18
102
{ACAD_REACTORS
330
17
102
}
330
17
100
AcDbMlineStyle
  2
Standard
 70
     0
  3

 62
   256
 51
90.0
 52
90.0
 71
     2
 49
0.5
 62
   256
  6
BYLAYER
 49
-0.5
 62
   256
  6
BYLAYER
  0
ACAD_PROXY_OBJECT
  5
2F
102
{ACAD_REACTORS
330
2A
102
}
330
2A
100
AcDbZombieObject
 90
      499
 91
      501
 93
      436
310
42CC9915DA5C99599C985B595049028333333333333E3BF0000000000000FB0107901411070040501600405405064090741402480A0340
1001
ACAD
1000
AcDbSavedByObjectVersion
1070
     0
  0
ACAD_PROXY_OBJECT
  5
30
102
{ACAD_REACTORS
330
2A
102
}
330
2A
100
AcDbZombieObject
 90
      499
 91
      501
 93
      436
310
42CCD915DA5C99599C985B595059028333333333333E3BF0000000000000FB0107901411070040501600405405064090741402480A0340
1001
ACAD
1000
AcDbSavedByObjectVersion
1070
     0
  0
ACAD_PROXY_OBJECT
  5
31
102
{ACAD_REACTORS
330
2A
102
}
330
2A
100
AcDbZombieObject
 90
      499
 91
      501
 93
      500
310
424CD108121A5919195B90640502408333333333333E3BF0000000000000FB01079024090700405020000000000001110200405405064090740C02480A0340
1001
ACAD
1000
AcDbSavedByObjectVersion
1070
     0
  0
ACAD_PROXY_OBJECT
  5
32
102
{ACAD_REACTORS
330
2A
102
}
330
2A
100
AcDbZombieObject
 90
      499
 91
      501
 93
      388
310
4150985CDA58D07406404333333333333E3BF0000000000000FB0107A41107004050150841D405064090741402480A0350
1001
ACAD
1000
AcDbSavedByObjectVersion
1070
     0
  0
ACAD_PROXY_OBJECT
  5
36
102
{ACAD_REACTORS
330
2A
102
}
330
2A
100
AcDbZombieObject
 90
      499
 91
      501
 93
      428
310
42109C9A59DA1D195B90C409028333333333333E3BF0000000000000FB010790141107004050150841D405064090741402480A029950
1001
ACAD
1000
AcDbSavedByObjectVersion
1070
     0
  0
ACAD_PROXY_OBJECT
  5
3A
102
{ACAD_REACTORS
330
2A
102
}
330
2A
100
AcDbZombieObject
 90
      499
 91
      501
 93
      452
310
42D0DBDB1BDC90DA185B99D95104090240C333333333333E3BF0000000000000FB0108901411070040501508421405064090741402480A0350
1001
ACAD
1000
AcDbSavedByObjectVersion
1070
     0
  0
ACAD_PROXY_OBJECT
  5
34
102
{ACAD_REACTORS
330
2A
102
}
330
2A
100
AcDbZombieObject
 90
      499
 91
      501
 93
      500
310
4290DBDB98D95C1D1D585B10940D028333333333333E3BF0000000000000FB0107902409070040501000000000000111010841D405064090740C02480A0340
1001
ACAD
1000
AcDbSavedByObjectVersion
1070
     0
  0
ACAD_PROXY_OBJECT
  5
35
102
{ACAD_REACTORS
330
2A
102
}
330
2A
100
AcDbZombieObject
 90
      499
 91
      501
 93
      412
310
40D11A5B50B409028333333333333E3BF0000000000000FB010790141107004050150841D405064090741402480A02677FFFFFD0
1001
ACAD
1000
AcDbSavedByObjectVersion
1070
     0
  0
ACAD_PROXY_OBJECT
  5
39
102
{ACAD_REACTORS
330
2A
102
}
330
2A
100
AcDbZombieObject
 90
      499
 91
      501
 93
      444
310
42D19858D95C185D1D195C9B90F409028333333333333E3BF0000000000000FB010790141107004050150841D405064090741402480A0350
1001
ACAD
1000
AcDbSavedByObjectVersion
1070
     0
  0
ACAD_PROXY_OBJECT
  5
2B
102
{ACAD_REACTORS
330
2A
102
}
330
2A
100
AcDbZombieObject
 90
      499
 91
      501
 93
      388
310
41119B185D240901404333333333333E3BF0000000000000F9010740A41107004050150841D405064090741402480A1B50
1001
ACAD
1000
AcDbSavedByObjectVersion
1070
     0
  0
ACAD_PROXY_OBJECT
  5
2C
102
{ACAD_REACTORS
330
2A
102
}
330
2A
100
AcDbZombieObject
 90
      499
 91
      501
 93
      476
310
43519B185D15DA5D1A115919D95CD0140901404333333333333E3BF0000000000000F9010740901411070040501600405405064090741402480A1B50
1001
ACAD
1000
AcDbSavedByObjectVersion
1070
     0
  0
ACAD_PROXY_OBJECT
  5
2D
102
{ACAD_REACTORS
330
2A
102
}
330
2A
100
AcDbZombieObject
 90
      499
 91
      501
 93
      412
310
41D1DBDD5C985D5910240902404333333333333E3BF0000000000000F9010740A411070040501641D405064090741402480A1B50
1001
ACAD
1000
AcDbSavedByObjectVersion
1070
     0
  0
ACAD_PROXY_OBJECT
  5
2E
102
{ACAD_REACTORS
330
2A
102
}
330
2A
100
AcDbZombieObject
 90
      499
 91
      501
 93
      500
310
4411DBDD5C985D5915DA5D1A115919D95CD0340902404333333333333E3BF0000000000000F9010740901411070040501600405405064090741402480A1B50
1001
ACAD
1000
AcDbSavedByObjectVersion
1070
     0
  0
ACAD_PROXY_OBJECT
  5
38
102
{ACAD_REACTORS
330
2A
102
}
330
2A
100
AcDbZombieObject
 90
      499
 91
      501
 93
      444
310
42D31A5B995C185D1D195C9B90E409028333333333333E3BF0000000000000FB010790141107004050750841D405064090741402483A0350
1001
ACAD
1000
AcDbSavedByObjectVersion
1070
     0
  0
ACAD_PROXY_OBJECT
  5
33
102
{ACAD_REACTORS
330
2A
102
}
330
2A
100
AcDbZombieObject
 90
      499
 91
      501
 93
      420
310
425499585B1A5CDD1A58D08409028333333333333E3BF0000000000000FB01079019070040501508421405064090741402480A1B40
1001
ACAD
1000
AcDbSavedByObjectVersion
1070
     0
  0
ACAD_PROXY_OBJECT
  5
37
102
{ACAD_REACTORS
330
2A
102
}
330
2A
100
AcDbZombieObject
 90
      499
 91
      501
 93
      412
310
41D51A1A58DAD95B90D409028333333333333E3BF0000000000000FB010790141107004050150C41D405064090741402480A0350
1001
ACAD
1000
AcDbSavedByObjectVersion
1070
     0
  0
DICTIONARYVAR
  5
45
102
{ACAD_REACTORS
330
42
102
}
330
42
100
DictionaryVariables
280
     0
  1
2
  0
DICTIONARYVAR
  5
46
102
{ACAD_REACTORS
330
42
102
}
330
42
100
DictionaryVariables
280
     0
  1
1
  0
DICTIONARY
  5
49
330
3D
100
AcDbDictionary
  3
ACAD_XREC_ROUNDTRIP
360
4A
1001
ACAD
1000
TREAT_AS_HARD
1070
     1
  0
DICTIONARY
  5
47
330
3C
100
AcDbDictionary
  3
ACAD_XREC_ROUNDTRIP
360
48
1001
ACAD
1000
TREAT_AS_HARD
1070
     1
  0
DICTIONARY
  5
4B
330
3E
100
AcDbDictionary
  3
ACAD_XREC_ROUNDTRIP
360
4C
1001
ACAD
1000
TREAT_AS_HARD
1070
     1
  0
XRECORD
  5
4A
102
{ACAD_REACTORS
330
49
102
}
330
49
100
AcDbXrecord
102
MATERIAL
148
0.0
149
0.0
149
0.0
 93
        0
 94
      127
282
     0
 72
     1
 77
     1
171
     1
175
     1
179
     1
273
     0
  0
XRECORD
  5
48
102
{ACAD_REACTORS
330
47
102
}
330
47
100
AcDbXrecord
102
MATERIAL
148
0.0
149
0.0
149
0.0
 93
        0
 94
      127
282
     0
 72
     1
 77
     1
171
     1
175
     1
179
     1
273
     0
  0
XRECORD
  5
4C
102
{ACAD_REACTORS
330
4B
102
}
330
4B
100
AcDbXrecord
102
MATERIAL
148
0.0
149
0.0
149
0.0
 93
        0
 94
      127
282
     0
 72
     1
 77
     1
171
     1
175
     1
179
     1
273
     0
  0
ENDSEC
  0
EOF
